<?xml version="1.0" encoding="UTF-8" standalone="no"?>
<!DOCTYPE svg PUBLIC "-//W3C//DTD SVG 1.1//EN"
 "http://www.w3.org/Graphics/SVG/1.1/DTD/svg11.dtd">
<!-- Generated by graphviz version 2.38.0 (20140413.2041)
 -->
<!-- Title: controllers_diagram Pages: 1 -->
<svg width="723pt" height="664pt"
 viewBox="0.00 0.00 722.50 664.00" xmlns="http://www.w3.org/2000/svg" xmlns:xlink="http://www.w3.org/1999/xlink">
<g id="graph0" class="graph" transform="scale(1 1) rotate(0) translate(276.5 405.5)">
<title>controllers_diagram</title>
<polygon fill="none" stroke="none" points="-276.5,258.5 -276.5,-405.5 446,-405.5 446,258.5 -276.5,258.5"/>
<!-- _diagram_info -->
<g id="node1" class="node"><title>_diagram_info</title>
<text text-anchor="start" x="93" y="140.4" font-family="Times,serif" font-size="13.00">Controllers diagram</text>
<text text-anchor="start" x="93" y="154.4" font-family="Times,serif" font-size="13.00">Date: Sep 26 2017 &#45; 20:48</text>
<text text-anchor="start" x="93" y="168.4" font-family="Times,serif" font-size="13.00">Migration version: 20170926234456</text>
<text text-anchor="start" x="93" y="182.4" font-family="Times,serif" font-size="13.00">Generated by RailRoady 1.5.3</text>
<text text-anchor="start" x="93" y="196.4" font-family="Times,serif" font-size="13.00">http://railroady.prestonlee.com</text>
</g>
<!-- Users::PasswordsController -->
<g id="node2" class="node"><title>Users::PasswordsController</title>
<path fill="none" stroke="black" d="M-260.5,-273C-260.5,-273 -117.5,-273 -117.5,-273 -111.5,-273 -105.5,-279 -105.5,-285 -105.5,-285 -105.5,-355 -105.5,-355 -105.5,-361 -111.5,-367 -117.5,-367 -117.5,-367 -260.5,-367 -260.5,-367 -266.5,-367 -272.5,-361 -272.5,-355 -272.5,-355 -272.5,-285 -272.5,-285 -272.5,-279 -266.5,-273 -260.5,-273"/>
<text text-anchor="middle" x="-189" y="-351.8" font-family="Times,serif" font-size="14.00">Users::PasswordsController</text>
<polyline fill="none" stroke="black" points="-272.5,-344 -105.5,-344 "/>
<polyline fill="none" stroke="black" points="-272.5,-320 -105.5,-320 "/>
<polyline fill="none" stroke="black" points="-272.5,-296 -105.5,-296 "/>
<text text-anchor="start" x="-264.5" y="-280.8" font-family="Times,serif" font-size="14.00">_layout</text>
</g>
<!-- Users::RegistrationsController -->
<g id="node3" class="node"><title>Users::RegistrationsController</title>
<path fill="none" stroke="black" d="M-243,254C-243,254 -85,254 -85,254 -79,254 -73,248 -73,242 -73,242 -73,172 -73,172 -73,166 -79,160 -85,160 -85,160 -243,160 -243,160 -249,160 -255,166 -255,172 -255,172 -255,242 -255,242 -255,248 -249,254 -243,254"/>
<text text-anchor="middle" x="-164" y="175.2" font-family="Times,serif" font-size="14.00">Users::RegistrationsController</text>
<polyline fill="none" stroke="black" points="-255,183 -73,183 "/>
<polyline fill="none" stroke="black" points="-255,207 -73,207 "/>
<polyline fill="none" stroke="black" points="-255,231 -73,231 "/>
<text text-anchor="start" x="-247" y="246.2" font-family="Times,serif" font-size="14.00">_layout</text>
</g>
<!-- Users::UnlocksController -->
<g id="node4" class="node"><title>Users::UnlocksController</title>
<path fill="none" stroke="black" d="M-242.5,-137C-242.5,-137 -111.5,-137 -111.5,-137 -105.5,-137 -99.5,-143 -99.5,-149 -99.5,-149 -99.5,-219 -99.5,-219 -99.5,-225 -105.5,-231 -111.5,-231 -111.5,-231 -242.5,-231 -242.5,-231 -248.5,-231 -254.5,-225 -254.5,-219 -254.5,-219 -254.5,-149 -254.5,-149 -254.5,-143 -248.5,-137 -242.5,-137"/>
<text text-anchor="middle" x="-177" y="-215.8" font-family="Times,serif" font-size="14.00">Users::UnlocksController</text>
<polyline fill="none" stroke="black" points="-254.5,-208 -99.5,-208 "/>
<polyline fill="none" stroke="black" points="-254.5,-184 -99.5,-184 "/>
<polyline fill="none" stroke="black" points="-254.5,-160 -99.5,-160 "/>
<text text-anchor="start" x="-246.5" y="-144.8" font-family="Times,serif" font-size="14.00">_layout</text>
</g>
<!-- Users::SessionsController -->
<g id="node5" class="node"><title>Users::SessionsController</title>
<path fill="none" stroke="black" d="M-259.5,-1C-259.5,-1 -126.5,-1 -126.5,-1 -120.5,-1 -114.5,-7 -114.5,-13 -114.5,-13 -114.5,-83 -114.5,-83 -114.5,-89 -120.5,-95 -126.5,-95 -126.5,-95 -259.5,-95 -259.5,-95 -265.5,-95 -271.5,-89 -271.5,-83 -271.5,-83 -271.5,-13 -271.5,-13 -271.5,-7 -265.5,-1 -259.5,-1"/>
<text text-anchor="middle" x="-193" y="-79.8" font-family="Times,serif" font-size="14.00">Users::SessionsController</text>
<polyline fill="none" stroke="black" points="-271.5,-72 -114.5,-72 "/>
<polyline fill="none" stroke="black" points="-271.5,-48 -114.5,-48 "/>
<polyline fill="none" stroke="black" points="-271.5,-24 -114.5,-24 "/>
<text text-anchor="start" x="-263.5" y="-8.8" font-family="Times,serif" font-size="14.00">_layout</text>
</g>
<!-- Users::OmniauthCallbacksController -->
<g id="node6" class="node"><title>Users::OmniauthCallbacksController</title>
<path fill="none" stroke="black" d="M182,-171C182,-171 376,-171 376,-171 382,-171 388,-177 388,-183 388,-183 388,-253 388,-253 388,-259 382,-265 376,-265 376,-265 182,-265 182,-265 176,-265 170,-259 170,-253 170,-253 170,-183 170,-183 170,-177 176,-171 182,-171"/>
<text text-anchor="middle" x="279" y="-249.8" font-family="Times,serif" font-size="14.00">Users::OmniauthCallbacksController</text>
<polyline fill="none" stroke="black" points="170,-242 388,-242 "/>
<polyline fill="none" stroke="black" points="170,-218 388,-218 "/>
<polyline fill="none" stroke="black" points="170,-194 388,-194 "/>
<text text-anchor="start" x="178" y="-178.8" font-family="Times,serif" font-size="14.00">_layout</text>
</g>
<!-- Users::ConfirmationsController -->
<g id="node7" class="node"><title>Users::ConfirmationsController</title>
<path fill="none" stroke="black" d="M233.5,84C233.5,84 398.5,84 398.5,84 404.5,84 410.5,78 410.5,72 410.5,72 410.5,2 410.5,2 410.5,-4 404.5,-10 398.5,-10 398.5,-10 233.5,-10 233.5,-10 227.5,-10 221.5,-4 221.5,2 221.5,2 221.5,72 221.5,72 221.5,78 227.5,84 233.5,84"/>
<text text-anchor="middle" x="316" y="5.2" font-family="Times,serif" font-size="14.00">Users::ConfirmationsController</text>
<polyline fill="none" stroke="black" points="221.5,13 410.5,13 "/>
<polyline fill="none" stroke="black" points="221.5,37 410.5,37 "/>
<polyline fill="none" stroke="black" points="221.5,61 410.5,61 "/>
<text text-anchor="start" x="229.5" y="76.2" font-family="Times,serif" font-size="14.00">_layout</text>
</g>
<!-- ApplicationController -->
<g id="node8" class="node"><title>ApplicationController</title>
<path fill="none" stroke="black" d="M318,-307C318,-307 430,-307 430,-307 436,-307 442,-313 442,-319 442,-319 442,-389 442,-389 442,-395 436,-401 430,-401 430,-401 318,-401 318,-401 312,-401 306,-395 306,-389 306,-389 306,-319 306,-319 306,-313 312,-307 318,-307"/>
<text text-anchor="middle" x="374" y="-385.8" font-family="Times,serif" font-size="14.00">ApplicationController</text>
<polyline fill="none" stroke="black" points="306,-378 442,-378 "/>
<polyline fill="none" stroke="black" points="306,-354 442,-354 "/>
<polyline fill="none" stroke="black" points="306,-330 442,-330 "/>
<text text-anchor="start" x="314" y="-314.8" font-family="Times,serif" font-size="14.00">_layout</text>
</g>
<!-- OrdersController -->
<g id="node9" class="node"><title>OrdersController</title>
<path fill="none" stroke="black" d="M97.5,84.5C97.5,84.5 182.5,84.5 182.5,84.5 188.5,84.5 194.5,78.5 194.5,72.5 194.5,72.5 194.5,-116.5 194.5,-116.5 194.5,-122.5 188.5,-128.5 182.5,-128.5 182.5,-128.5 97.5,-128.5 97.5,-128.5 91.5,-128.5 85.5,-122.5 85.5,-116.5 85.5,-116.5 85.5,72.5 85.5,72.5 85.5,78.5 91.5,84.5 97.5,84.5"/>
<text text-anchor="middle" x="140" y="-113.3" font-family="Times,serif" font-size="14.00">OrdersController</text>
<polyline fill="none" stroke="black" points="85.5,-105.5 194.5,-105.5 "/>
<text text-anchor="start" x="93.5" y="-90.3" font-family="Times,serif" font-size="14.00">create</text>
<text text-anchor="start" x="93.5" y="-75.3" font-family="Times,serif" font-size="14.00">destroy</text>
<text text-anchor="start" x="93.5" y="-60.3" font-family="Times,serif" font-size="14.00">edit</text>
<text text-anchor="start" x="93.5" y="-45.3" font-family="Times,serif" font-size="14.00">index</text>
<text text-anchor="start" x="93.5" y="-30.3" font-family="Times,serif" font-size="14.00">new</text>
<text text-anchor="start" x="93.5" y="-15.3" font-family="Times,serif" font-size="14.00">show</text>
<text text-anchor="start" x="93.5" y="-0.3" font-family="Times,serif" font-size="14.00">update</text>
<polyline fill="none" stroke="black" points="85.5,7.5 194.5,7.5 "/>
<polyline fill="none" stroke="black" points="85.5,31.5 194.5,31.5 "/>
<text text-anchor="start" x="93.5" y="46.7" font-family="Times,serif" font-size="14.00">_layout</text>
<text text-anchor="start" x="93.5" y="61.7" font-family="Times,serif" font-size="14.00">order_params</text>
<text text-anchor="start" x="93.5" y="76.7" font-family="Times,serif" font-size="14.00">set_order</text>
</g>
<!-- ArcadesController -->
<g id="node10" class="node"><title>ArcadesController</title>
<path fill="none" stroke="black" d="M-56,-136.5C-56,-136.5 36,-136.5 36,-136.5 42,-136.5 48,-142.5 48,-148.5 48,-148.5 48,-337.5 48,-337.5 48,-343.5 42,-349.5 36,-349.5 36,-349.5 -56,-349.5 -56,-349.5 -62,-349.5 -68,-343.5 -68,-337.5 -68,-337.5 -68,-148.5 -68,-148.5 -68,-142.5 -62,-136.5 -56,-136.5"/>
<text text-anchor="middle" x="-10" y="-334.3" font-family="Times,serif" font-size="14.00">ArcadesController</text>
<polyline fill="none" stroke="black" points="-68,-326.5 48,-326.5 "/>
<text text-anchor="start" x="-60" y="-311.3" font-family="Times,serif" font-size="14.00">create</text>
<text text-anchor="start" x="-60" y="-296.3" font-family="Times,serif" font-size="14.00">destroy</text>
<text text-anchor="start" x="-60" y="-281.3" font-family="Times,serif" font-size="14.00">edit</text>
<text text-anchor="start" x="-60" y="-266.3" font-family="Times,serif" font-size="14.00">index</text>
<text text-anchor="start" x="-60" y="-251.3" font-family="Times,serif" font-size="14.00">new</text>
<text text-anchor="start" x="-60" y="-236.3" font-family="Times,serif" font-size="14.00">show</text>
<text text-anchor="start" x="-60" y="-221.3" font-family="Times,serif" font-size="14.00">update</text>
<polyline fill="none" stroke="black" points="-68,-213.5 48,-213.5 "/>
<polyline fill="none" stroke="black" points="-68,-189.5 48,-189.5 "/>
<text text-anchor="start" x="-60" y="-174.3" font-family="Times,serif" font-size="14.00">_layout</text>
<text text-anchor="start" x="-60" y="-159.3" font-family="Times,serif" font-size="14.00">arcade_params</text>
<text text-anchor="start" x="-60" y="-144.3" font-family="Times,serif" font-size="14.00">set_arcade</text>
</g>
<!-- ComponentsController -->
<g id="node11" class="node"><title>ComponentsController</title>
<path fill="none" stroke="black" d="M-72.5,118.5C-72.5,118.5 44.5,118.5 44.5,118.5 50.5,118.5 56.5,112.5 56.5,106.5 56.5,106.5 56.5,-82.5 56.5,-82.5 56.5,-88.5 50.5,-94.5 44.5,-94.5 44.5,-94.5 -72.5,-94.5 -72.5,-94.5 -78.5,-94.5 -84.5,-88.5 -84.5,-82.5 -84.5,-82.5 -84.5,106.5 -84.5,106.5 -84.5,112.5 -78.5,118.5 -72.5,118.5"/>
<text text-anchor="middle" x="-14" y="-79.3" font-family="Times,serif" font-size="14.00">ComponentsController</text>
<polyline fill="none" stroke="black" points="-84.5,-71.5 56.5,-71.5 "/>
<text text-anchor="start" x="-76.5" y="-56.3" font-family="Times,serif" font-size="14.00">create</text>
<text text-anchor="start" x="-76.5" y="-41.3" font-family="Times,serif" font-size="14.00">destroy</text>
<text text-anchor="start" x="-76.5" y="-26.3" font-family="Times,serif" font-size="14.00">edit</text>
<text text-anchor="start" x="-76.5" y="-11.3" font-family="Times,serif" font-size="14.00">index</text>
<text text-anchor="start" x="-76.5" y="3.7" font-family="Times,serif" font-size="14.00">new</text>
<text text-anchor="start" x="-76.5" y="18.7" font-family="Times,serif" font-size="14.00">show</text>
<text text-anchor="start" x="-76.5" y="33.7" font-family="Times,serif" font-size="14.00">update</text>
<polyline fill="none" stroke="black" points="-84.5,41.5 56.5,41.5 "/>
<polyline fill="none" stroke="black" points="-84.5,65.5 56.5,65.5 "/>
<text text-anchor="start" x="-76.5" y="80.7" font-family="Times,serif" font-size="14.00">_layout</text>
<text text-anchor="start" x="-76.5" y="95.7" font-family="Times,serif" font-size="14.00">component_params</text>
<text text-anchor="start" x="-76.5" y="110.7" font-family="Times,serif" font-size="14.00">set_component</text>
</g>
</g>
</svg>
