<?xml version="1.0" encoding="UTF-8" standalone="no"?>
<!DOCTYPE svg PUBLIC "-//W3C//DTD SVG 1.1//EN"
 "http://www.w3.org/Graphics/SVG/1.1/DTD/svg11.dtd">
<!-- Generated by graphviz version 2.38.0 (20140413.2041)
 -->
<!-- Title: controllers_diagram Pages: 1 -->
<svg width="722pt" height="664pt"
 viewBox="0.00 0.00 721.50 664.00" xmlns="http://www.w3.org/2000/svg" xmlns:xlink="http://www.w3.org/1999/xlink">
<g id="graph0" class="graph" transform="scale(1 1) rotate(0) translate(275.5 405.5)">
<title>controllers_diagram</title>
<polygon fill="none" stroke="none" points="-275.5,258.5 -275.5,-405.5 446,-405.5 446,258.5 -275.5,258.5"/>
<!-- _diagram_info -->
<g id="node1" class="node"><title>_diagram_info</title>
<text text-anchor="start" x="229" y="-114.6" font-family="Times,serif" font-size="13.00">Controllers diagram</text>
<text text-anchor="start" x="229" y="-100.6" font-family="Times,serif" font-size="13.00">Date: Oct 07 2017 &#45; 13:25</text>
<text text-anchor="start" x="229" y="-86.6" font-family="Times,serif" font-size="13.00">Migration version: 20171006134847</text>
<text text-anchor="start" x="229" y="-72.6" font-family="Times,serif" font-size="13.00">Generated by RailRoady 1.5.3</text>
<text text-anchor="start" x="229" y="-58.6" font-family="Times,serif" font-size="13.00">http://railroady.prestonlee.com</text>
</g>
<!-- Users::PasswordsController -->
<g id="node2" class="node"><title>Users::PasswordsController</title>
<path fill="none" stroke="black" d="M-243.5,254C-243.5,254 -100.5,254 -100.5,254 -94.5,254 -88.5,248 -88.5,242 -88.5,242 -88.5,172 -88.5,172 -88.5,166 -94.5,160 -100.5,160 -100.5,160 -243.5,160 -243.5,160 -249.5,160 -255.5,166 -255.5,172 -255.5,172 -255.5,242 -255.5,242 -255.5,248 -249.5,254 -243.5,254"/>
<text text-anchor="middle" x="-172" y="175.2" font-family="Times,serif" font-size="14.00">Users::PasswordsController</text>
<polyline fill="none" stroke="black" points="-255.5,183 -88.5,183 "/>
<polyline fill="none" stroke="black" points="-255.5,207 -88.5,207 "/>
<polyline fill="none" stroke="black" points="-255.5,231 -88.5,231 "/>
<text text-anchor="start" x="-247.5" y="246.2" font-family="Times,serif" font-size="14.00">_layout</text>
</g>
<!-- Users::RegistrationsController -->
<g id="node3" class="node"><title>Users::RegistrationsController</title>
<path fill="none" stroke="black" d="M97,84C97,84 279,84 279,84 285,84 291,78 291,72 291,72 291,-12 291,-12 291,-18 285,-24 279,-24 279,-24 97,-24 97,-24 91,-24 85,-18 85,-12 85,-12 85,72 85,72 85,78 91,84 97,84"/>
<text text-anchor="middle" x="188" y="-8.8" font-family="Times,serif" font-size="14.00">Users::RegistrationsController</text>
<polyline fill="none" stroke="black" points="85,-1 291,-1 "/>
<polyline fill="none" stroke="black" points="85,23 291,23 "/>
<text text-anchor="start" x="93" y="38.2" font-family="Times,serif" font-size="14.00">configure_account_update_params</text>
<text text-anchor="start" x="93" y="53.2" font-family="Times,serif" font-size="14.00">configure_sign_up_params</text>
<polyline fill="none" stroke="black" points="85,61 291,61 "/>
<text text-anchor="start" x="93" y="76.2" font-family="Times,serif" font-size="14.00">_layout</text>
</g>
<!-- Users::UnlocksController -->
<g id="node4" class="node"><title>Users::UnlocksController</title>
<path fill="none" stroke="black" d="M-242.5,-256C-242.5,-256 -111.5,-256 -111.5,-256 -105.5,-256 -99.5,-262 -99.5,-268 -99.5,-268 -99.5,-338 -99.5,-338 -99.5,-344 -105.5,-350 -111.5,-350 -111.5,-350 -242.5,-350 -242.5,-350 -248.5,-350 -254.5,-344 -254.5,-338 -254.5,-338 -254.5,-268 -254.5,-268 -254.5,-262 -248.5,-256 -242.5,-256"/>
<text text-anchor="middle" x="-177" y="-334.8" font-family="Times,serif" font-size="14.00">Users::UnlocksController</text>
<polyline fill="none" stroke="black" points="-254.5,-327 -99.5,-327 "/>
<polyline fill="none" stroke="black" points="-254.5,-303 -99.5,-303 "/>
<polyline fill="none" stroke="black" points="-254.5,-279 -99.5,-279 "/>
<text text-anchor="start" x="-246.5" y="-263.8" font-family="Times,serif" font-size="14.00">_layout</text>
</g>
<!-- Users::SessionsController -->
<g id="node5" class="node"><title>Users::SessionsController</title>
<path fill="none" stroke="black" d="M-259.5,-120C-259.5,-120 -126.5,-120 -126.5,-120 -120.5,-120 -114.5,-126 -114.5,-132 -114.5,-132 -114.5,-202 -114.5,-202 -114.5,-208 -120.5,-214 -126.5,-214 -126.5,-214 -259.5,-214 -259.5,-214 -265.5,-214 -271.5,-208 -271.5,-202 -271.5,-202 -271.5,-132 -271.5,-132 -271.5,-126 -265.5,-120 -259.5,-120"/>
<text text-anchor="middle" x="-193" y="-198.8" font-family="Times,serif" font-size="14.00">Users::SessionsController</text>
<polyline fill="none" stroke="black" points="-271.5,-191 -114.5,-191 "/>
<polyline fill="none" stroke="black" points="-271.5,-167 -114.5,-167 "/>
<polyline fill="none" stroke="black" points="-271.5,-143 -114.5,-143 "/>
<text text-anchor="start" x="-263.5" y="-127.8" font-family="Times,serif" font-size="14.00">_layout</text>
</g>
<!-- Users::OmniauthCallbacksController -->
<g id="node6" class="node"><title>Users::OmniauthCallbacksController</title>
<path fill="none" stroke="black" d="M97,220C97,220 291,220 291,220 297,220 303,214 303,208 303,208 303,138 303,138 303,132 297,126 291,126 291,126 97,126 97,126 91,126 85,132 85,138 85,138 85,208 85,208 85,214 91,220 97,220"/>
<text text-anchor="middle" x="194" y="141.2" font-family="Times,serif" font-size="14.00">Users::OmniauthCallbacksController</text>
<polyline fill="none" stroke="black" points="85,149 303,149 "/>
<polyline fill="none" stroke="black" points="85,173 303,173 "/>
<polyline fill="none" stroke="black" points="85,197 303,197 "/>
<text text-anchor="start" x="93" y="212.2" font-family="Times,serif" font-size="14.00">_layout</text>
</g>
<!-- Users::ConfirmationsController -->
<g id="node7" class="node"><title>Users::ConfirmationsController</title>
<path fill="none" stroke="black" d="M233.5,-171C233.5,-171 398.5,-171 398.5,-171 404.5,-171 410.5,-177 410.5,-183 410.5,-183 410.5,-253 410.5,-253 410.5,-259 404.5,-265 398.5,-265 398.5,-265 233.5,-265 233.5,-265 227.5,-265 221.5,-259 221.5,-253 221.5,-253 221.5,-183 221.5,-183 221.5,-177 227.5,-171 233.5,-171"/>
<text text-anchor="middle" x="316" y="-249.8" font-family="Times,serif" font-size="14.00">Users::ConfirmationsController</text>
<polyline fill="none" stroke="black" points="221.5,-242 410.5,-242 "/>
<polyline fill="none" stroke="black" points="221.5,-218 410.5,-218 "/>
<polyline fill="none" stroke="black" points="221.5,-194 410.5,-194 "/>
<text text-anchor="start" x="229.5" y="-178.8" font-family="Times,serif" font-size="14.00">_layout</text>
</g>
<!-- ApplicationController -->
<g id="node8" class="node"><title>ApplicationController</title>
<path fill="none" stroke="black" d="M318,-307C318,-307 430,-307 430,-307 436,-307 442,-313 442,-319 442,-319 442,-389 442,-389 442,-395 436,-401 430,-401 430,-401 318,-401 318,-401 312,-401 306,-395 306,-389 306,-389 306,-319 306,-319 306,-313 312,-307 318,-307"/>
<text text-anchor="middle" x="374" y="-385.8" font-family="Times,serif" font-size="14.00">ApplicationController</text>
<polyline fill="none" stroke="black" points="306,-378 442,-378 "/>
<polyline fill="none" stroke="black" points="306,-354 442,-354 "/>
<polyline fill="none" stroke="black" points="306,-330 442,-330 "/>
<text text-anchor="start" x="314" y="-314.8" font-family="Times,serif" font-size="14.00">_layout</text>
</g>
<!-- OrdersController -->
<g id="node9" class="node"><title>OrdersController</title>
<path fill="none" stroke="black" d="M97.5,-51.5C97.5,-51.5 182.5,-51.5 182.5,-51.5 188.5,-51.5 194.5,-57.5 194.5,-63.5 194.5,-63.5 194.5,-252.5 194.5,-252.5 194.5,-258.5 188.5,-264.5 182.5,-264.5 182.5,-264.5 97.5,-264.5 97.5,-264.5 91.5,-264.5 85.5,-258.5 85.5,-252.5 85.5,-252.5 85.5,-63.5 85.5,-63.5 85.5,-57.5 91.5,-51.5 97.5,-51.5"/>
<text text-anchor="middle" x="140" y="-249.3" font-family="Times,serif" font-size="14.00">OrdersController</text>
<polyline fill="none" stroke="black" points="85.5,-241.5 194.5,-241.5 "/>
<text text-anchor="start" x="93.5" y="-226.3" font-family="Times,serif" font-size="14.00">create</text>
<text text-anchor="start" x="93.5" y="-211.3" font-family="Times,serif" font-size="14.00">destroy</text>
<text text-anchor="start" x="93.5" y="-196.3" font-family="Times,serif" font-size="14.00">edit</text>
<text text-anchor="start" x="93.5" y="-181.3" font-family="Times,serif" font-size="14.00">index</text>
<text text-anchor="start" x="93.5" y="-166.3" font-family="Times,serif" font-size="14.00">new</text>
<text text-anchor="start" x="93.5" y="-151.3" font-family="Times,serif" font-size="14.00">show</text>
<text text-anchor="start" x="93.5" y="-136.3" font-family="Times,serif" font-size="14.00">update</text>
<polyline fill="none" stroke="black" points="85.5,-128.5 194.5,-128.5 "/>
<polyline fill="none" stroke="black" points="85.5,-104.5 194.5,-104.5 "/>
<text text-anchor="start" x="93.5" y="-89.3" font-family="Times,serif" font-size="14.00">_layout</text>
<text text-anchor="start" x="93.5" y="-74.3" font-family="Times,serif" font-size="14.00">order_params</text>
<text text-anchor="start" x="93.5" y="-59.3" font-family="Times,serif" font-size="14.00">set_order</text>
</g>
<!-- ArcadesController -->
<g id="node10" class="node"><title>ArcadesController</title>
<path fill="none" stroke="black" d="M-56,-136.5C-56,-136.5 36,-136.5 36,-136.5 42,-136.5 48,-142.5 48,-148.5 48,-148.5 48,-337.5 48,-337.5 48,-343.5 42,-349.5 36,-349.5 36,-349.5 -56,-349.5 -56,-349.5 -62,-349.5 -68,-343.5 -68,-337.5 -68,-337.5 -68,-148.5 -68,-148.5 -68,-142.5 -62,-136.5 -56,-136.5"/>
<text text-anchor="middle" x="-10" y="-334.3" font-family="Times,serif" font-size="14.00">ArcadesController</text>
<polyline fill="none" stroke="black" points="-68,-326.5 48,-326.5 "/>
<text text-anchor="start" x="-60" y="-311.3" font-family="Times,serif" font-size="14.00">create</text>
<text text-anchor="start" x="-60" y="-296.3" font-family="Times,serif" font-size="14.00">destroy</text>
<text text-anchor="start" x="-60" y="-281.3" font-family="Times,serif" font-size="14.00">edit</text>
<text text-anchor="start" x="-60" y="-266.3" font-family="Times,serif" font-size="14.00">index</text>
<text text-anchor="start" x="-60" y="-251.3" font-family="Times,serif" font-size="14.00">new</text>
<text text-anchor="start" x="-60" y="-236.3" font-family="Times,serif" font-size="14.00">show</text>
<text text-anchor="start" x="-60" y="-221.3" font-family="Times,serif" font-size="14.00">update</text>
<polyline fill="none" stroke="black" points="-68,-213.5 48,-213.5 "/>
<polyline fill="none" stroke="black" points="-68,-189.5 48,-189.5 "/>
<text text-anchor="start" x="-60" y="-174.3" font-family="Times,serif" font-size="14.00">_layout</text>
<text text-anchor="start" x="-60" y="-159.3" font-family="Times,serif" font-size="14.00">arcade_params</text>
<text text-anchor="start" x="-60" y="-144.3" font-family="Times,serif" font-size="14.00">set_arcade</text>
</g>
<!-- PagesController -->
<g id="node11" class="node"><title>PagesController</title>
<path fill="none" stroke="black" d="M-209,33.5C-209,33.5 -129,33.5 -129,33.5 -123,33.5 -117,27.5 -117,21.5 -117,21.5 -117,-77.5 -117,-77.5 -117,-83.5 -123,-89.5 -129,-89.5 -129,-89.5 -209,-89.5 -209,-89.5 -215,-89.5 -221,-83.5 -221,-77.5 -221,-77.5 -221,21.5 -221,21.5 -221,27.5 -215,33.5 -209,33.5"/>
<text text-anchor="middle" x="-169" y="-74.3" font-family="Times,serif" font-size="14.00">PagesController</text>
<polyline fill="none" stroke="black" points="-221,-66.5 -117,-66.5 "/>
<text text-anchor="start" x="-213" y="-51.3" font-family="Times,serif" font-size="14.00">about</text>
<text text-anchor="start" x="-213" y="-36.3" font-family="Times,serif" font-size="14.00">contact</text>
<text text-anchor="start" x="-213" y="-21.3" font-family="Times,serif" font-size="14.00">home</text>
<polyline fill="none" stroke="black" points="-221,-13.5 -117,-13.5 "/>
<polyline fill="none" stroke="black" points="-221,10.5 -117,10.5 "/>
<text text-anchor="start" x="-213" y="25.7" font-family="Times,serif" font-size="14.00">_layout</text>
</g>
<!-- ComponentsController -->
<g id="node12" class="node"><title>ComponentsController</title>
<path fill="none" stroke="black" d="M-72.5,118.5C-72.5,118.5 44.5,118.5 44.5,118.5 50.5,118.5 56.5,112.5 56.5,106.5 56.5,106.5 56.5,-82.5 56.5,-82.5 56.5,-88.5 50.5,-94.5 44.5,-94.5 44.5,-94.5 -72.5,-94.5 -72.5,-94.5 -78.5,-94.5 -84.5,-88.5 -84.5,-82.5 -84.5,-82.5 -84.5,106.5 -84.5,106.5 -84.5,112.5 -78.5,118.5 -72.5,118.5"/>
<text text-anchor="middle" x="-14" y="-79.3" font-family="Times,serif" font-size="14.00">ComponentsController</text>
<polyline fill="none" stroke="black" points="-84.5,-71.5 56.5,-71.5 "/>
<text text-anchor="start" x="-76.5" y="-56.3" font-family="Times,serif" font-size="14.00">create</text>
<text text-anchor="start" x="-76.5" y="-41.3" font-family="Times,serif" font-size="14.00">destroy</text>
<text text-anchor="start" x="-76.5" y="-26.3" font-family="Times,serif" font-size="14.00">edit</text>
<text text-anchor="start" x="-76.5" y="-11.3" font-family="Times,serif" font-size="14.00">index</text>
<text text-anchor="start" x="-76.5" y="3.7" font-family="Times,serif" font-size="14.00">new</text>
<text text-anchor="start" x="-76.5" y="18.7" font-family="Times,serif" font-size="14.00">show</text>
<text text-anchor="start" x="-76.5" y="33.7" font-family="Times,serif" font-size="14.00">update</text>
<polyline fill="none" stroke="black" points="-84.5,41.5 56.5,41.5 "/>
<polyline fill="none" stroke="black" points="-84.5,65.5 56.5,65.5 "/>
<text text-anchor="start" x="-76.5" y="80.7" font-family="Times,serif" font-size="14.00">_layout</text>
<text text-anchor="start" x="-76.5" y="95.7" font-family="Times,serif" font-size="14.00">component_params</text>
<text text-anchor="start" x="-76.5" y="110.7" font-family="Times,serif" font-size="14.00">set_component</text>
</g>
</g>
</svg>
