<?xml version="1.0" encoding="UTF-8" standalone="no"?>
<!DOCTYPE svg PUBLIC "-//W3C//DTD SVG 1.1//EN"
 "http://www.w3.org/Graphics/SVG/1.1/DTD/svg11.dtd">
<!-- Generated by graphviz version 2.38.0 (20140413.2041)
 -->
<!-- Title: controllers_diagram Pages: 1 -->
<svg width="707pt" height="644pt"
 viewBox="0.00 0.00 707.00 643.50" xmlns="http://www.w3.org/2000/svg" xmlns:xlink="http://www.w3.org/1999/xlink">
<g id="graph0" class="graph" transform="scale(1 1) rotate(0) translate(275.5 400)">
<title>controllers_diagram</title>
<polygon fill="none" stroke="none" points="-275.5,243.5 -275.5,-400 431.5,-400 431.5,243.5 -275.5,243.5"/>
<!-- _diagram_info -->
<g id="node1" class="node"><title>_diagram_info</title>
<text text-anchor="start" x="104" y="144.4" font-family="Times,serif" font-size="13.00">Controllers diagram</text>
<text text-anchor="start" x="104" y="158.4" font-family="Times,serif" font-size="13.00">Date: Oct 04 2017 &#45; 15:56</text>
<text text-anchor="start" x="104" y="172.4" font-family="Times,serif" font-size="13.00">Migration version: 20171004143142</text>
<text text-anchor="start" x="104" y="186.4" font-family="Times,serif" font-size="13.00">Generated by RailRoady 1.5.3</text>
<text text-anchor="start" x="104" y="200.4" font-family="Times,serif" font-size="13.00">http://railroady.prestonlee.com</text>
</g>
<!-- Users::PasswordsController -->
<g id="node2" class="node"><title>Users::PasswordsController</title>
<path fill="none" stroke="black" d="M-228.5,-241C-228.5,-241 -85.5,-241 -85.5,-241 -79.5,-241 -73.5,-247 -73.5,-253 -73.5,-253 -73.5,-323 -73.5,-323 -73.5,-329 -79.5,-335 -85.5,-335 -85.5,-335 -228.5,-335 -228.5,-335 -234.5,-335 -240.5,-329 -240.5,-323 -240.5,-323 -240.5,-253 -240.5,-253 -240.5,-247 -234.5,-241 -228.5,-241"/>
<text text-anchor="middle" x="-157" y="-319.8" font-family="Times,serif" font-size="14.00">Users::PasswordsController</text>
<polyline fill="none" stroke="black" points="-240.5,-312 -73.5,-312 "/>
<polyline fill="none" stroke="black" points="-240.5,-288 -73.5,-288 "/>
<polyline fill="none" stroke="black" points="-240.5,-264 -73.5,-264 "/>
<text text-anchor="start" x="-232.5" y="-248.8" font-family="Times,serif" font-size="14.00">_layout</text>
</g>
<!-- Users::RegistrationsController -->
<g id="node3" class="node"><title>Users::RegistrationsController</title>
<path fill="none" stroke="black" d="M252,95C252,95 410,95 410,95 416,95 422,89 422,83 422,83 422,13 422,13 422,7 416,1 410,1 410,1 252,1 252,1 246,1 240,7 240,13 240,13 240,83 240,83 240,89 246,95 252,95"/>
<text text-anchor="middle" x="331" y="16.2" font-family="Times,serif" font-size="14.00">Users::RegistrationsController</text>
<polyline fill="none" stroke="black" points="240,24 422,24 "/>
<polyline fill="none" stroke="black" points="240,48 422,48 "/>
<polyline fill="none" stroke="black" points="240,72 422,72 "/>
<text text-anchor="start" x="248" y="87.2" font-family="Times,serif" font-size="14.00">_layout</text>
</g>
<!-- Users::UnlocksController -->
<g id="node4" class="node"><title>Users::UnlocksController</title>
<path fill="none" stroke="black" d="M284.5,-273C284.5,-273 415.5,-273 415.5,-273 421.5,-273 427.5,-279 427.5,-285 427.5,-285 427.5,-355 427.5,-355 427.5,-361 421.5,-367 415.5,-367 415.5,-367 284.5,-367 284.5,-367 278.5,-367 272.5,-361 272.5,-355 272.5,-355 272.5,-285 272.5,-285 272.5,-279 278.5,-273 284.5,-273"/>
<text text-anchor="middle" x="350" y="-351.8" font-family="Times,serif" font-size="14.00">Users::UnlocksController</text>
<polyline fill="none" stroke="black" points="272.5,-344 427.5,-344 "/>
<polyline fill="none" stroke="black" points="272.5,-320 427.5,-320 "/>
<polyline fill="none" stroke="black" points="272.5,-296 427.5,-296 "/>
<text text-anchor="start" x="280.5" y="-280.8" font-family="Times,serif" font-size="14.00">_layout</text>
</g>
<!-- Users::SessionsController -->
<g id="node5" class="node"><title>Users::SessionsController</title>
<path fill="none" stroke="black" d="M-259.5,-113C-259.5,-113 -126.5,-113 -126.5,-113 -120.5,-113 -114.5,-119 -114.5,-125 -114.5,-125 -114.5,-195 -114.5,-195 -114.5,-201 -120.5,-207 -126.5,-207 -126.5,-207 -259.5,-207 -259.5,-207 -265.5,-207 -271.5,-201 -271.5,-195 -271.5,-195 -271.5,-125 -271.5,-125 -271.5,-119 -265.5,-113 -259.5,-113"/>
<text text-anchor="middle" x="-193" y="-191.8" font-family="Times,serif" font-size="14.00">Users::SessionsController</text>
<polyline fill="none" stroke="black" points="-271.5,-184 -114.5,-184 "/>
<polyline fill="none" stroke="black" points="-271.5,-160 -114.5,-160 "/>
<polyline fill="none" stroke="black" points="-271.5,-136 -114.5,-136 "/>
<text text-anchor="start" x="-263.5" y="-120.8" font-family="Times,serif" font-size="14.00">_layout</text>
</g>
<!-- Users::OmniauthCallbacksController -->
<g id="node6" class="node"><title>Users::OmniauthCallbacksController</title>
<path fill="none" stroke="black" d="M156,-145C156,-145 350,-145 350,-145 356,-145 362,-151 362,-157 362,-157 362,-227 362,-227 362,-233 356,-239 350,-239 350,-239 156,-239 156,-239 150,-239 144,-233 144,-227 144,-227 144,-157 144,-157 144,-151 150,-145 156,-145"/>
<text text-anchor="middle" x="253" y="-223.8" font-family="Times,serif" font-size="14.00">Users::OmniauthCallbacksController</text>
<polyline fill="none" stroke="black" points="144,-216 362,-216 "/>
<polyline fill="none" stroke="black" points="144,-192 362,-192 "/>
<polyline fill="none" stroke="black" points="144,-168 362,-168 "/>
<text text-anchor="start" x="152" y="-152.8" font-family="Times,serif" font-size="14.00">_layout</text>
</g>
<!-- Users::ConfirmationsController -->
<g id="node7" class="node"><title>Users::ConfirmationsController</title>
<path fill="none" stroke="black" d="M-227.5,239C-227.5,239 -62.5,239 -62.5,239 -56.5,239 -50.5,233 -50.5,227 -50.5,227 -50.5,157 -50.5,157 -50.5,151 -56.5,145 -62.5,145 -62.5,145 -227.5,145 -227.5,145 -233.5,145 -239.5,151 -239.5,157 -239.5,157 -239.5,227 -239.5,227 -239.5,233 -233.5,239 -227.5,239"/>
<text text-anchor="middle" x="-145" y="160.2" font-family="Times,serif" font-size="14.00">Users::ConfirmationsController</text>
<polyline fill="none" stroke="black" points="-239.5,168 -50.5,168 "/>
<polyline fill="none" stroke="black" points="-239.5,192 -50.5,192 "/>
<polyline fill="none" stroke="black" points="-239.5,216 -50.5,216 "/>
<text text-anchor="start" x="-231.5" y="231.2" font-family="Times,serif" font-size="14.00">_layout</text>
</g>
<!-- ApplicationController -->
<g id="node8" class="node"><title>ApplicationController</title>
<path fill="none" stroke="black" d="M-244,15C-244,15 -132,15 -132,15 -126,15 -120,9 -120,3 -120,3 -120,-67 -120,-67 -120,-73 -126,-79 -132,-79 -132,-79 -244,-79 -244,-79 -250,-79 -256,-73 -256,-67 -256,-67 -256,3 -256,3 -256,9 -250,15 -244,15"/>
<text text-anchor="middle" x="-188" y="-63.8" font-family="Times,serif" font-size="14.00">ApplicationController</text>
<polyline fill="none" stroke="black" points="-256,-56 -120,-56 "/>
<polyline fill="none" stroke="black" points="-256,-32 -120,-32 "/>
<polyline fill="none" stroke="black" points="-256,-8 -120,-8 "/>
<text text-anchor="start" x="-248" y="7.2" font-family="Times,serif" font-size="14.00">_layout</text>
</g>
<!-- OrdersController -->
<g id="node9" class="node"><title>OrdersController</title>
<path fill="none" stroke="black" d="M-35.5,-128.5C-35.5,-128.5 49.5,-128.5 49.5,-128.5 55.5,-128.5 61.5,-134.5 61.5,-140.5 61.5,-140.5 61.5,-329.5 61.5,-329.5 61.5,-335.5 55.5,-341.5 49.5,-341.5 49.5,-341.5 -35.5,-341.5 -35.5,-341.5 -41.5,-341.5 -47.5,-335.5 -47.5,-329.5 -47.5,-329.5 -47.5,-140.5 -47.5,-140.5 -47.5,-134.5 -41.5,-128.5 -35.5,-128.5"/>
<text text-anchor="middle" x="7" y="-326.3" font-family="Times,serif" font-size="14.00">OrdersController</text>
<polyline fill="none" stroke="black" points="-47.5,-318.5 61.5,-318.5 "/>
<text text-anchor="start" x="-39.5" y="-303.3" font-family="Times,serif" font-size="14.00">create</text>
<text text-anchor="start" x="-39.5" y="-288.3" font-family="Times,serif" font-size="14.00">destroy</text>
<text text-anchor="start" x="-39.5" y="-273.3" font-family="Times,serif" font-size="14.00">edit</text>
<text text-anchor="start" x="-39.5" y="-258.3" font-family="Times,serif" font-size="14.00">index</text>
<text text-anchor="start" x="-39.5" y="-243.3" font-family="Times,serif" font-size="14.00">new</text>
<text text-anchor="start" x="-39.5" y="-228.3" font-family="Times,serif" font-size="14.00">show</text>
<text text-anchor="start" x="-39.5" y="-213.3" font-family="Times,serif" font-size="14.00">update</text>
<polyline fill="none" stroke="black" points="-47.5,-205.5 61.5,-205.5 "/>
<polyline fill="none" stroke="black" points="-47.5,-181.5 61.5,-181.5 "/>
<text text-anchor="start" x="-39.5" y="-166.3" font-family="Times,serif" font-size="14.00">_layout</text>
<text text-anchor="start" x="-39.5" y="-151.3" font-family="Times,serif" font-size="14.00">order_params</text>
<text text-anchor="start" x="-39.5" y="-136.3" font-family="Times,serif" font-size="14.00">set_order</text>
</g>
<!-- ArcadesController -->
<g id="node10" class="node"><title>ArcadesController</title>
<path fill="none" stroke="black" d="M108,95.5C108,95.5 200,95.5 200,95.5 206,95.5 212,89.5 212,83.5 212,83.5 212,-105.5 212,-105.5 212,-111.5 206,-117.5 200,-117.5 200,-117.5 108,-117.5 108,-117.5 102,-117.5 96,-111.5 96,-105.5 96,-105.5 96,83.5 96,83.5 96,89.5 102,95.5 108,95.5"/>
<text text-anchor="middle" x="154" y="-102.3" font-family="Times,serif" font-size="14.00">ArcadesController</text>
<polyline fill="none" stroke="black" points="96,-94.5 212,-94.5 "/>
<text text-anchor="start" x="104" y="-79.3" font-family="Times,serif" font-size="14.00">create</text>
<text text-anchor="start" x="104" y="-64.3" font-family="Times,serif" font-size="14.00">destroy</text>
<text text-anchor="start" x="104" y="-49.3" font-family="Times,serif" font-size="14.00">edit</text>
<text text-anchor="start" x="104" y="-34.3" font-family="Times,serif" font-size="14.00">index</text>
<text text-anchor="start" x="104" y="-19.3" font-family="Times,serif" font-size="14.00">new</text>
<text text-anchor="start" x="104" y="-4.3" font-family="Times,serif" font-size="14.00">show</text>
<text text-anchor="start" x="104" y="10.7" font-family="Times,serif" font-size="14.00">update</text>
<polyline fill="none" stroke="black" points="96,18.5 212,18.5 "/>
<polyline fill="none" stroke="black" points="96,42.5 212,42.5 "/>
<text text-anchor="start" x="104" y="57.7" font-family="Times,serif" font-size="14.00">_layout</text>
<text text-anchor="start" x="104" y="72.7" font-family="Times,serif" font-size="14.00">arcade_params</text>
<text text-anchor="start" x="104" y="87.7" font-family="Times,serif" font-size="14.00">set_arcade</text>
</g>
<!-- PagesController -->
<g id="node11" class="node"><title>PagesController</title>
<path fill="none" stroke="black" d="M140,-272.5C140,-272.5 220,-272.5 220,-272.5 226,-272.5 232,-278.5 232,-284.5 232,-284.5 232,-383.5 232,-383.5 232,-389.5 226,-395.5 220,-395.5 220,-395.5 140,-395.5 140,-395.5 134,-395.5 128,-389.5 128,-383.5 128,-383.5 128,-284.5 128,-284.5 128,-278.5 134,-272.5 140,-272.5"/>
<text text-anchor="middle" x="180" y="-380.3" font-family="Times,serif" font-size="14.00">PagesController</text>
<polyline fill="none" stroke="black" points="128,-372.5 232,-372.5 "/>
<text text-anchor="start" x="136" y="-357.3" font-family="Times,serif" font-size="14.00">about</text>
<text text-anchor="start" x="136" y="-342.3" font-family="Times,serif" font-size="14.00">contact</text>
<text text-anchor="start" x="136" y="-327.3" font-family="Times,serif" font-size="14.00">home</text>
<polyline fill="none" stroke="black" points="128,-319.5 232,-319.5 "/>
<polyline fill="none" stroke="black" points="128,-295.5 232,-295.5 "/>
<text text-anchor="start" x="136" y="-280.3" font-family="Times,serif" font-size="14.00">_layout</text>
</g>
<!-- ComponentsController -->
<g id="node12" class="node"><title>ComponentsController</title>
<path fill="none" stroke="black" d="M-67.5,111.5C-67.5,111.5 49.5,111.5 49.5,111.5 55.5,111.5 61.5,105.5 61.5,99.5 61.5,99.5 61.5,-89.5 61.5,-89.5 61.5,-95.5 55.5,-101.5 49.5,-101.5 49.5,-101.5 -67.5,-101.5 -67.5,-101.5 -73.5,-101.5 -79.5,-95.5 -79.5,-89.5 -79.5,-89.5 -79.5,99.5 -79.5,99.5 -79.5,105.5 -73.5,111.5 -67.5,111.5"/>
<text text-anchor="middle" x="-9" y="-86.3" font-family="Times,serif" font-size="14.00">ComponentsController</text>
<polyline fill="none" stroke="black" points="-79.5,-78.5 61.5,-78.5 "/>
<text text-anchor="start" x="-71.5" y="-63.3" font-family="Times,serif" font-size="14.00">create</text>
<text text-anchor="start" x="-71.5" y="-48.3" font-family="Times,serif" font-size="14.00">destroy</text>
<text text-anchor="start" x="-71.5" y="-33.3" font-family="Times,serif" font-size="14.00">edit</text>
<text text-anchor="start" x="-71.5" y="-18.3" font-family="Times,serif" font-size="14.00">index</text>
<text text-anchor="start" x="-71.5" y="-3.3" font-family="Times,serif" font-size="14.00">new</text>
<text text-anchor="start" x="-71.5" y="11.7" font-family="Times,serif" font-size="14.00">show</text>
<text text-anchor="start" x="-71.5" y="26.7" font-family="Times,serif" font-size="14.00">update</text>
<polyline fill="none" stroke="black" points="-79.5,34.5 61.5,34.5 "/>
<polyline fill="none" stroke="black" points="-79.5,58.5 61.5,58.5 "/>
<text text-anchor="start" x="-71.5" y="73.7" font-family="Times,serif" font-size="14.00">_layout</text>
<text text-anchor="start" x="-71.5" y="88.7" font-family="Times,serif" font-size="14.00">component_params</text>
<text text-anchor="start" x="-71.5" y="103.7" font-family="Times,serif" font-size="14.00">set_component</text>
</g>
</g>
</svg>
