<?xml version="1.0" encoding="UTF-8" standalone="no"?>
<!DOCTYPE svg PUBLIC "-//W3C//DTD SVG 1.1//EN"
 "http://www.w3.org/Graphics/SVG/1.1/DTD/svg11.dtd">
<!-- Generated by graphviz version 2.38.0 (20140413.2041)
 -->
<!-- Title: models_diagram Pages: 1 -->
<svg width="573pt" height="302pt"
 viewBox="0.00 0.00 573.34 302.00" xmlns="http://www.w3.org/2000/svg" xmlns:xlink="http://www.w3.org/1999/xlink">
<g id="graph0" class="graph" transform="scale(1 1) rotate(0) translate(4 298)">
<title>models_diagram</title>
<polygon fill="none" stroke="none" points="-4,4 -4,-298 569.343,-298 569.343,4 -4,4"/>
<!-- _diagram_info -->
<g id="node1" class="node"><title>_diagram_info</title>
<text text-anchor="start" x="8" y="-279.6" font-family="Times,serif" font-size="13.00">Models diagram</text>
<text text-anchor="start" x="8" y="-265.6" font-family="Times,serif" font-size="13.00">Date: Oct 04 2017 &#45; 15:56</text>
<text text-anchor="start" x="8" y="-251.6" font-family="Times,serif" font-size="13.00">Migration version: 20171004143142</text>
<text text-anchor="start" x="8" y="-237.6" font-family="Times,serif" font-size="13.00">Generated by RailRoady 1.5.3</text>
<text text-anchor="start" x="8" y="-223.6" font-family="Times,serif" font-size="13.00">http://railroady.prestonlee.com</text>
</g>
<!-- Order -->
<g id="node2" class="node"><title>Order</title>
<ellipse fill="none" stroke="black" cx="259" cy="-162" rx="31.3957" ry="18"/>
<text text-anchor="middle" x="259" y="-158.3" font-family="Times,serif" font-size="14.00">Order</text>
</g>
<!-- Arcade -->
<g id="node4" class="node"><title>Arcade</title>
<ellipse fill="none" stroke="black" cx="268" cy="-90" rx="36.2938" ry="18"/>
<text text-anchor="middle" x="268" y="-86.3" font-family="Times,serif" font-size="14.00">Arcade</text>
</g>
<!-- Order&#45;&gt;Arcade -->
<g id="edge1" class="edge"><title>Order&#45;&gt;Arcade</title>
<path fill="none" stroke="#5e9e48" d="M262.261,-135.64C262.996,-129.92 263.779,-123.828 264.523,-118.042"/>
<ellipse fill="none" stroke="#5e9e48" cx="261.735" cy="-139.729" rx="4.00001" ry="4.00001"/>
<polygon fill="#5e9e48" stroke="#5e9e48" points="264.526,-118.023 270.264,-108.678 265.163,-113.064 265.801,-108.104 265.801,-108.104 265.801,-108.104 265.163,-113.064 261.338,-107.53 264.526,-118.023 264.526,-118.023"/>
</g>
<!-- Component -->
<g id="node3" class="node"><title>Component</title>
<ellipse fill="none" stroke="black" cx="360" cy="-162" rx="51.9908" ry="18"/>
<text text-anchor="middle" x="360" y="-158.3" font-family="Times,serif" font-size="14.00">Component</text>
</g>
<!-- Component&#45;&gt;Arcade -->
<g id="edge3" class="edge"><title>Component&#45;&gt;Arcade</title>
<path fill="none" stroke="#d9ef39" d="M330.998,-138.933C319.525,-130.204 306.411,-120.226 295.129,-111.642"/>
<polygon fill="#d9ef39" stroke="#d9ef39" points="331.165,-139.061 336.399,-148.697 335.145,-142.088 339.124,-145.116 339.124,-145.116 339.124,-145.116 335.145,-142.088 341.849,-141.535 331.165,-139.061 331.165,-139.061"/>
<polygon fill="#d9ef39" stroke="#d9ef39" points="294.874,-111.448 289.641,-101.811 290.895,-108.42 286.916,-105.393 286.916,-105.393 286.916,-105.393 290.895,-108.42 284.191,-108.974 294.874,-111.448 294.874,-111.448"/>
</g>
<!-- ComponentArcade -->
<g id="node7" class="node"><title>ComponentArcade</title>
<ellipse fill="none" stroke="black" cx="309" cy="-18" rx="77.1866" ry="18"/>
<text text-anchor="middle" x="309" y="-14.3" font-family="Times,serif" font-size="14.00">ComponentArcade</text>
</g>
<!-- Component&#45;&gt;ComponentArcade -->
<g id="edge2" class="edge"><title>Component&#45;&gt;ComponentArcade</title>
<path fill="none" stroke="#027c6c" d="M351.128,-136.297C342.045,-111.006 327.971,-71.82 318.623,-45.7944"/>
<ellipse fill="none" stroke="#027c6c" cx="352.496" cy="-140.107" rx="4.00001" ry="4.00001"/>
<polygon fill="#027c6c" stroke="#027c6c" points="318.554,-45.6007 319.409,-34.6682 316.864,-40.895 315.174,-36.1893 315.174,-36.1893 315.174,-36.1893 316.864,-40.895 310.938,-37.7104 318.554,-45.6007 318.554,-45.6007"/>
</g>
<!-- Arcade&#45;&gt;ComponentArcade -->
<g id="edge4" class="edge"><title>Arcade&#45;&gt;ComponentArcade</title>
<path fill="none" stroke="#078f4a" d="M281.854,-65.3464C285.736,-58.7188 289.974,-51.4827 293.923,-44.7405"/>
<ellipse fill="none" stroke="#078f4a" cx="279.738" cy="-68.9594" rx="4.00002" ry="4.00002"/>
<polygon fill="#078f4a" stroke="#078f4a" points="294.014,-44.5851 302.951,-38.2305 296.541,-40.2706 299.069,-35.9562 299.069,-35.9562 299.069,-35.9562 296.541,-40.2706 295.186,-33.6819 294.014,-44.5851 294.014,-44.5851"/>
</g>
<!-- ApplicationRecord -->
<g id="node5" class="node"><title>ApplicationRecord</title>
<ellipse fill="none" stroke="black" cx="488" cy="-255" rx="77.1866" ry="18"/>
<text text-anchor="middle" x="488" y="-251.3" font-family="Times,serif" font-size="14.00">ApplicationRecord</text>
</g>
<!-- Design -->
<g id="node6" class="node"><title>Design</title>
<ellipse fill="none" stroke="black" cx="174" cy="-162" rx="35.9954" ry="18"/>
<text text-anchor="middle" x="174" y="-158.3" font-family="Times,serif" font-size="14.00">Design</text>
</g>
<!-- Design&#45;&gt;Arcade -->
<g id="edge5" class="edge"><title>Design&#45;&gt;Arcade</title>
<path fill="none" stroke="#399129" d="M200.227,-141.469C212.678,-132.197 227.564,-121.112 240.209,-111.695"/>
<ellipse fill="none" stroke="#399129" cx="196.685" cy="-144.107" rx="4.00002" ry="4.00002"/>
<polygon fill="#399129" stroke="#399129" points="240.528,-111.458 251.236,-109.095 244.538,-108.472 248.548,-105.485 248.548,-105.485 248.548,-105.485 244.538,-108.472 245.86,-101.876 240.528,-111.458 240.528,-111.458"/>
</g>
<!-- User -->
<g id="node8" class="node"><title>User</title>
<ellipse fill="none" stroke="black" cx="259" cy="-255" rx="27.0966" ry="18"/>
<text text-anchor="middle" x="259" y="-251.3" font-family="Times,serif" font-size="14.00">User</text>
</g>
<!-- User&#45;&gt;Order -->
<g id="edge6" class="edge"><title>User&#45;&gt;Order</title>
<path fill="none" stroke="#4b746a" d="M259,-228.729C259,-216.725 259,-202.362 259,-190.129"/>
<ellipse fill="none" stroke="#4b746a" cx="259" cy="-232.884" rx="4" ry="4"/>
<polygon fill="#4b746a" stroke="#4b746a" points="259,-190.04 263.5,-180.04 259,-185.04 259,-180.04 259,-180.04 259,-180.04 259,-185.04 254.5,-180.04 259,-190.04 259,-190.04"/>
</g>
<!-- Brand -->
<g id="node9" class="node"><title>Brand</title>
<ellipse fill="none" stroke="black" cx="360" cy="-255" rx="32.4942" ry="18"/>
<text text-anchor="middle" x="360" y="-251.3" font-family="Times,serif" font-size="14.00">Brand</text>
</g>
<!-- Brand&#45;&gt;Component -->
<g id="edge7" class="edge"><title>Brand&#45;&gt;Component</title>
<path fill="none" stroke="#167023" d="M360,-228.729C360,-216.725 360,-202.362 360,-190.129"/>
<ellipse fill="none" stroke="#167023" cx="360" cy="-232.884" rx="4" ry="4"/>
<polygon fill="#167023" stroke="#167023" points="360,-190.04 364.5,-180.04 360,-185.04 360,-180.04 360,-180.04 360,-180.04 360,-185.04 355.5,-180.04 360,-190.04 360,-190.04"/>
</g>
</g>
</svg>
