<?xml version="1.0" encoding="UTF-8" standalone="no"?>
<!DOCTYPE svg PUBLIC "-//W3C//DTD SVG 1.1//EN"
 "http://www.w3.org/Graphics/SVG/1.1/DTD/svg11.dtd">
<!-- Generated by graphviz version 2.38.0 (20140413.2041)
 -->
<!-- Title: models_diagram Pages: 1 -->
<svg width="988pt" height="814pt"
 viewBox="0.00 0.00 988.34 814.00" xmlns="http://www.w3.org/2000/svg" xmlns:xlink="http://www.w3.org/1999/xlink">
<g id="graph0" class="graph" transform="scale(1 1) rotate(0) translate(4 810)">
<title>models_diagram</title>
<polygon fill="none" stroke="none" points="-4,4 -4,-810 984.343,-810 984.343,4 -4,4"/>
<!-- _diagram_info -->
<g id="node1" class="node"><title>_diagram_info</title>
<text text-anchor="start" x="8" y="-687.1" font-family="Times,serif" font-size="13.00">Models diagram</text>
<text text-anchor="start" x="8" y="-673.1" font-family="Times,serif" font-size="13.00">Date: Oct 04 2017 &#45; 15:56</text>
<text text-anchor="start" x="8" y="-659.1" font-family="Times,serif" font-size="13.00">Migration version: 20171004143142</text>
<text text-anchor="start" x="8" y="-645.1" font-family="Times,serif" font-size="13.00">Generated by RailRoady 1.5.3</text>
<text text-anchor="start" x="8" y="-631.1" font-family="Times,serif" font-size="13.00">http://railroady.prestonlee.com</text>
</g>
<!-- Order -->
<g id="node2" class="node"><title>Order</title>
<path fill="none" stroke="black" d="M296,-346.5C296,-346.5 516,-346.5 516,-346.5 522,-346.5 528,-352.5 528,-358.5 528,-358.5 528,-455.5 528,-455.5 528,-461.5 522,-467.5 516,-467.5 516,-467.5 296,-467.5 296,-467.5 290,-467.5 284,-461.5 284,-455.5 284,-455.5 284,-358.5 284,-358.5 284,-352.5 290,-346.5 296,-346.5"/>
<text text-anchor="middle" x="406" y="-452.3" font-family="Times,serif" font-size="14.00">Order</text>
<polyline fill="none" stroke="black" points="284,-444.5 528,-444.5 "/>
<text text-anchor="start" x="292" y="-429.3" font-family="Times,serif" font-size="14.00">id :integer</text>
<text text-anchor="start" x="292" y="-414.3" font-family="Times,serif" font-size="14.00">user_id :integer</text>
<text text-anchor="start" x="292" y="-399.3" font-family="Times,serif" font-size="14.00">amount :integer</text>
<text text-anchor="start" x="292" y="-384.3" font-family="Times,serif" font-size="14.00">created_at :timestamp without time zone</text>
<text text-anchor="start" x="292" y="-369.3" font-family="Times,serif" font-size="14.00">updated_at :timestamp without time zone</text>
<text text-anchor="start" x="292" y="-354.3" font-family="Times,serif" font-size="14.00">payed :boolean</text>
</g>
<!-- Arcade -->
<g id="node4" class="node"><title>Arcade</title>
<path fill="none" stroke="black" d="M324,-143.5C324,-143.5 544,-143.5 544,-143.5 550,-143.5 556,-149.5 556,-155.5 556,-155.5 556,-282.5 556,-282.5 556,-288.5 550,-294.5 544,-294.5 544,-294.5 324,-294.5 324,-294.5 318,-294.5 312,-288.5 312,-282.5 312,-282.5 312,-155.5 312,-155.5 312,-149.5 318,-143.5 324,-143.5"/>
<text text-anchor="middle" x="434" y="-279.3" font-family="Times,serif" font-size="14.00">Arcade</text>
<polyline fill="none" stroke="black" points="312,-271.5 556,-271.5 "/>
<text text-anchor="start" x="320" y="-256.3" font-family="Times,serif" font-size="14.00">id :integer</text>
<text text-anchor="start" x="320" y="-241.3" font-family="Times,serif" font-size="14.00">name :character varying</text>
<text text-anchor="start" x="320" y="-226.3" font-family="Times,serif" font-size="14.00">price :integer</text>
<text text-anchor="start" x="320" y="-211.3" font-family="Times,serif" font-size="14.00">order_id :integer</text>
<text text-anchor="start" x="320" y="-196.3" font-family="Times,serif" font-size="14.00">created_at :timestamp without time zone</text>
<text text-anchor="start" x="320" y="-181.3" font-family="Times,serif" font-size="14.00">updated_at :timestamp without time zone</text>
<text text-anchor="start" x="320" y="-166.3" font-family="Times,serif" font-size="14.00">design_id :integer</text>
<text text-anchor="start" x="320" y="-151.3" font-family="Times,serif" font-size="14.00">image :character varying</text>
</g>
<!-- Order&#45;&gt;Arcade -->
<g id="edge1" class="edge"><title>Order&#45;&gt;Arcade</title>
<path fill="none" stroke="#19eb40" d="M416.213,-338.156C417.844,-327.319 419.55,-315.99 421.232,-304.819"/>
<ellipse fill="none" stroke="#19eb40" cx="415.57" cy="-342.426" rx="4.00001" ry="4.00001"/>
<polygon fill="#19eb40" stroke="#19eb40" points="421.278,-304.513 427.216,-295.294 422.022,-299.568 422.766,-294.624 422.766,-294.624 422.766,-294.624 422.022,-299.568 418.316,-293.954 421.278,-304.513 421.278,-304.513"/>
</g>
<!-- Component -->
<g id="node3" class="node"><title>Component</title>
<path fill="none" stroke="black" d="M558,-331.5C558,-331.5 778,-331.5 778,-331.5 784,-331.5 790,-337.5 790,-343.5 790,-343.5 790,-470.5 790,-470.5 790,-476.5 784,-482.5 778,-482.5 778,-482.5 558,-482.5 558,-482.5 552,-482.5 546,-476.5 546,-470.5 546,-470.5 546,-343.5 546,-343.5 546,-337.5 552,-331.5 558,-331.5"/>
<text text-anchor="middle" x="668" y="-467.3" font-family="Times,serif" font-size="14.00">Component</text>
<polyline fill="none" stroke="black" points="546,-459.5 790,-459.5 "/>
<text text-anchor="start" x="554" y="-444.3" font-family="Times,serif" font-size="14.00">id :integer</text>
<text text-anchor="start" x="554" y="-429.3" font-family="Times,serif" font-size="14.00">name :character varying</text>
<text text-anchor="start" x="554" y="-414.3" font-family="Times,serif" font-size="14.00">price :integer</text>
<text text-anchor="start" x="554" y="-399.3" font-family="Times,serif" font-size="14.00">stock :integer</text>
<text text-anchor="start" x="554" y="-384.3" font-family="Times,serif" font-size="14.00">created_at :timestamp without time zone</text>
<text text-anchor="start" x="554" y="-369.3" font-family="Times,serif" font-size="14.00">updated_at :timestamp without time zone</text>
<text text-anchor="start" x="554" y="-354.3" font-family="Times,serif" font-size="14.00">brand_id :integer</text>
<text text-anchor="start" x="554" y="-339.3" font-family="Times,serif" font-size="14.00">image :character varying</text>
</g>
<!-- Component&#45;&gt;Arcade -->
<g id="edge3" class="edge"><title>Component&#45;&gt;Arcade</title>
<path fill="none" stroke="#d5478a" d="M566.261,-325.131C556.189,-317.125 545.964,-308.997 535.89,-300.989"/>
<polygon fill="#d5478a" stroke="#d5478a" points="566.343,-325.196 571.371,-334.941 570.257,-328.307 574.172,-331.418 574.172,-331.418 574.172,-331.418 570.257,-328.307 576.972,-327.896 566.343,-325.196 566.343,-325.196"/>
<polygon fill="#d5478a" stroke="#d5478a" points="535.678,-300.821 530.65,-291.076 531.764,-297.71 527.85,-294.598 527.85,-294.598 527.85,-294.598 531.764,-297.71 525.049,-298.121 535.678,-300.821 535.678,-300.821"/>
</g>
<!-- ComponentArcade -->
<g id="node7" class="node"><title>ComponentArcade</title>
<path fill="none" stroke="black" d="M427,-0.5C427,-0.5 647,-0.5 647,-0.5 653,-0.5 659,-6.5 659,-12.5 659,-12.5 659,-94.5 659,-94.5 659,-100.5 653,-106.5 647,-106.5 647,-106.5 427,-106.5 427,-106.5 421,-106.5 415,-100.5 415,-94.5 415,-94.5 415,-12.5 415,-12.5 415,-6.5 421,-0.5 427,-0.5"/>
<text text-anchor="middle" x="537" y="-91.3" font-family="Times,serif" font-size="14.00">ComponentArcade</text>
<polyline fill="none" stroke="black" points="415,-83.5 659,-83.5 "/>
<text text-anchor="start" x="423" y="-68.3" font-family="Times,serif" font-size="14.00">id :integer</text>
<text text-anchor="start" x="423" y="-53.3" font-family="Times,serif" font-size="14.00">arcade_id :integer</text>
<text text-anchor="start" x="423" y="-38.3" font-family="Times,serif" font-size="14.00">component_id :integer</text>
<text text-anchor="start" x="423" y="-23.3" font-family="Times,serif" font-size="14.00">created_at :timestamp without time zone</text>
<text text-anchor="start" x="423" y="-8.3" font-family="Times,serif" font-size="14.00">updated_at :timestamp without time zone</text>
</g>
<!-- Component&#45;&gt;ComponentArcade -->
<g id="edge2" class="edge"><title>Component&#45;&gt;ComponentArcade</title>
<path fill="none" stroke="#2ebbb6" d="M637.372,-323.819C613.741,-260.413 581.563,-174.071 560.075,-116.416"/>
<ellipse fill="none" stroke="#2ebbb6" cx="638.821" cy="-327.708" rx="4.00001" ry="4.00001"/>
<polygon fill="#2ebbb6" stroke="#2ebbb6" points="559.95,-116.078 560.674,-105.136 558.203,-111.393 556.457,-106.708 556.457,-106.708 556.457,-106.708 558.203,-111.393 552.241,-108.28 559.95,-116.078 559.95,-116.078"/>
</g>
<!-- Arcade&#45;&gt;ComponentArcade -->
<g id="edge4" class="edge"><title>Arcade&#45;&gt;ComponentArcade</title>
<path fill="none" stroke="#5bc68d" d="M485.406,-136.399C489.907,-129.254 494.41,-122.107 498.776,-115.177"/>
<ellipse fill="none" stroke="#5bc68d" cx="483.111" cy="-140.042" rx="4.00002" ry="4.00002"/>
<polygon fill="#5bc68d" stroke="#5bc68d" points="498.892,-114.992 508.03,-108.929 501.557,-110.761 504.222,-106.531 504.222,-106.531 504.222,-106.531 501.557,-110.761 500.415,-104.132 498.892,-114.992 498.892,-114.992"/>
</g>
<!-- ApplicationRecord -->
<g id="node5" class="node"><title>ApplicationRecord</title>
<ellipse fill="none" stroke="black" cx="903" cy="-662.5" rx="77.1866" ry="18"/>
<text text-anchor="middle" x="903" y="-658.8" font-family="Times,serif" font-size="14.00">ApplicationRecord</text>
</g>
<!-- Design -->
<g id="node6" class="node"><title>Design</title>
<path fill="none" stroke="black" d="M34,-361.5C34,-361.5 254,-361.5 254,-361.5 260,-361.5 266,-367.5 266,-373.5 266,-373.5 266,-440.5 266,-440.5 266,-446.5 260,-452.5 254,-452.5 254,-452.5 34,-452.5 34,-452.5 28,-452.5 22,-446.5 22,-440.5 22,-440.5 22,-373.5 22,-373.5 22,-367.5 28,-361.5 34,-361.5"/>
<text text-anchor="middle" x="144" y="-437.3" font-family="Times,serif" font-size="14.00">Design</text>
<polyline fill="none" stroke="black" points="22,-429.5 266,-429.5 "/>
<text text-anchor="start" x="30" y="-414.3" font-family="Times,serif" font-size="14.00">id :integer</text>
<text text-anchor="start" x="30" y="-399.3" font-family="Times,serif" font-size="14.00">name :character varying</text>
<text text-anchor="start" x="30" y="-384.3" font-family="Times,serif" font-size="14.00">created_at :timestamp without time zone</text>
<text text-anchor="start" x="30" y="-369.3" font-family="Times,serif" font-size="14.00">updated_at :timestamp without time zone</text>
</g>
<!-- Design&#45;&gt;Arcade -->
<g id="edge5" class="edge"><title>Design&#45;&gt;Arcade</title>
<path fill="none" stroke="#6d4975" d="M220.524,-356.919C247.744,-339.461 279.143,-319.322 309.341,-299.954"/>
<ellipse fill="none" stroke="#6d4975" cx="216.829" cy="-359.289" rx="4.00002" ry="4.00002"/>
<polygon fill="#6d4975" stroke="#6d4975" points="309.405,-299.913 320.251,-298.302 313.613,-297.214 317.822,-294.514 317.822,-294.514 317.822,-294.514 313.613,-297.214 315.393,-290.726 309.405,-299.913 309.405,-299.913"/>
</g>
<!-- User -->
<g id="node8" class="node"><title>User</title>
<path fill="none" stroke="black" d="M244.5,-519.5C244.5,-519.5 533.5,-519.5 533.5,-519.5 539.5,-519.5 545.5,-525.5 545.5,-531.5 545.5,-531.5 545.5,-793.5 545.5,-793.5 545.5,-799.5 539.5,-805.5 533.5,-805.5 533.5,-805.5 244.5,-805.5 244.5,-805.5 238.5,-805.5 232.5,-799.5 232.5,-793.5 232.5,-793.5 232.5,-531.5 232.5,-531.5 232.5,-525.5 238.5,-519.5 244.5,-519.5"/>
<text text-anchor="middle" x="389" y="-790.3" font-family="Times,serif" font-size="14.00">User</text>
<polyline fill="none" stroke="black" points="232.5,-782.5 545.5,-782.5 "/>
<text text-anchor="start" x="240.5" y="-767.3" font-family="Times,serif" font-size="14.00">id :integer</text>
<text text-anchor="start" x="240.5" y="-752.3" font-family="Times,serif" font-size="14.00">email :character varying</text>
<text text-anchor="start" x="240.5" y="-737.3" font-family="Times,serif" font-size="14.00">encrypted_password :character varying</text>
<text text-anchor="start" x="240.5" y="-722.3" font-family="Times,serif" font-size="14.00">reset_password_token :character varying</text>
<text text-anchor="start" x="240.5" y="-707.3" font-family="Times,serif" font-size="14.00">reset_password_sent_at :timestamp without time zone</text>
<text text-anchor="start" x="240.5" y="-692.3" font-family="Times,serif" font-size="14.00">remember_created_at :timestamp without time zone</text>
<text text-anchor="start" x="240.5" y="-677.3" font-family="Times,serif" font-size="14.00">sign_in_count :integer</text>
<text text-anchor="start" x="240.5" y="-662.3" font-family="Times,serif" font-size="14.00">current_sign_in_at :timestamp without time zone</text>
<text text-anchor="start" x="240.5" y="-647.3" font-family="Times,serif" font-size="14.00">last_sign_in_at :timestamp without time zone</text>
<text text-anchor="start" x="240.5" y="-632.3" font-family="Times,serif" font-size="14.00">current_sign_in_ip :inet</text>
<text text-anchor="start" x="240.5" y="-617.3" font-family="Times,serif" font-size="14.00">last_sign_in_ip :inet</text>
<text text-anchor="start" x="240.5" y="-602.3" font-family="Times,serif" font-size="14.00">created_at :timestamp without time zone</text>
<text text-anchor="start" x="240.5" y="-587.3" font-family="Times,serif" font-size="14.00">updated_at :timestamp without time zone</text>
<text text-anchor="start" x="240.5" y="-572.3" font-family="Times,serif" font-size="14.00">phone :character varying</text>
<text text-anchor="start" x="240.5" y="-557.3" font-family="Times,serif" font-size="14.00">first_name :character varying</text>
<text text-anchor="start" x="240.5" y="-542.3" font-family="Times,serif" font-size="14.00">last_name :character varying</text>
<text text-anchor="start" x="240.5" y="-527.3" font-family="Times,serif" font-size="14.00">address :character varying</text>
</g>
<!-- User&#45;&gt;Order -->
<g id="edge6" class="edge"><title>User&#45;&gt;Order</title>
<path fill="none" stroke="#13e637" d="M399.084,-511.131C399.863,-499.51 400.624,-488.163 401.339,-477.5"/>
<ellipse fill="none" stroke="#13e637" cx="398.811" cy="-515.198" rx="4" ry="4"/>
<polygon fill="#13e637" stroke="#13e637" points="401.341,-477.478 406.5,-467.802 401.675,-472.49 402.01,-467.501 402.01,-467.501 402.01,-467.501 401.675,-472.49 397.52,-467.2 401.341,-477.478 401.341,-477.478"/>
</g>
<!-- Brand -->
<g id="node9" class="node"><title>Brand</title>
<path fill="none" stroke="black" d="M576,-617C576,-617 796,-617 796,-617 802,-617 808,-623 808,-629 808,-629 808,-696 808,-696 808,-702 802,-708 796,-708 796,-708 576,-708 576,-708 570,-708 564,-702 564,-696 564,-696 564,-629 564,-629 564,-623 570,-617 576,-617"/>
<text text-anchor="middle" x="686" y="-692.8" font-family="Times,serif" font-size="14.00">Brand</text>
<polyline fill="none" stroke="black" points="564,-685 808,-685 "/>
<text text-anchor="start" x="572" y="-669.8" font-family="Times,serif" font-size="14.00">id :integer</text>
<text text-anchor="start" x="572" y="-654.8" font-family="Times,serif" font-size="14.00">name :character varying</text>
<text text-anchor="start" x="572" y="-639.8" font-family="Times,serif" font-size="14.00">created_at :timestamp without time zone</text>
<text text-anchor="start" x="572" y="-624.8" font-family="Times,serif" font-size="14.00">updated_at :timestamp without time zone</text>
</g>
<!-- Brand&#45;&gt;Component -->
<g id="edge7" class="edge"><title>Brand&#45;&gt;Component</title>
<path fill="none" stroke="#5dc3ec" d="M682.251,-608.703C679.871,-575.182 676.737,-531.049 674.015,-492.705"/>
<ellipse fill="none" stroke="#5dc3ec" cx="682.54" cy="-612.773" rx="4" ry="4"/>
<polygon fill="#5dc3ec" stroke="#5dc3ec" points="674.004,-492.551 677.784,-482.258 673.65,-487.564 673.295,-482.576 673.295,-482.576 673.295,-482.576 673.65,-487.564 668.807,-482.895 674.004,-492.551 674.004,-492.551"/>
</g>
</g>
</svg>
