<?xml version="1.0" encoding="UTF-8" standalone="no"?>
<!DOCTYPE svg PUBLIC "-//W3C//DTD SVG 1.1//EN"
 "http://www.w3.org/Graphics/SVG/1.1/DTD/svg11.dtd">
<!-- Generated by graphviz version 2.38.0 (20140413.2041)
 -->
<!-- Title: models_diagram Pages: 1 -->
<svg width="988pt" height="784pt"
 viewBox="0.00 0.00 988.34 784.00" xmlns="http://www.w3.org/2000/svg" xmlns:xlink="http://www.w3.org/1999/xlink">
<g id="graph0" class="graph" transform="scale(1 1) rotate(0) translate(4 780)">
<title>models_diagram</title>
<polygon fill="none" stroke="none" points="-4,4 -4,-780 984.343,-780 984.343,4 -4,4"/>
<!-- _diagram_info -->
<g id="node1" class="node"><title>_diagram_info</title>
<text text-anchor="start" x="8" y="-657.1" font-family="Times,serif" font-size="13.00">Models diagram</text>
<text text-anchor="start" x="8" y="-643.1" font-family="Times,serif" font-size="13.00">Date: Sep 26 2017 &#45; 20:48</text>
<text text-anchor="start" x="8" y="-629.1" font-family="Times,serif" font-size="13.00">Migration version: 20170926234456</text>
<text text-anchor="start" x="8" y="-615.1" font-family="Times,serif" font-size="13.00">Generated by RailRoady 1.5.3</text>
<text text-anchor="start" x="8" y="-601.1" font-family="Times,serif" font-size="13.00">http://railroady.prestonlee.com</text>
</g>
<!-- Order -->
<g id="node2" class="node"><title>Order</title>
<path fill="none" stroke="black" d="M296,-331.5C296,-331.5 516,-331.5 516,-331.5 522,-331.5 528,-337.5 528,-343.5 528,-343.5 528,-425.5 528,-425.5 528,-431.5 522,-437.5 516,-437.5 516,-437.5 296,-437.5 296,-437.5 290,-437.5 284,-431.5 284,-425.5 284,-425.5 284,-343.5 284,-343.5 284,-337.5 290,-331.5 296,-331.5"/>
<text text-anchor="middle" x="406" y="-422.3" font-family="Times,serif" font-size="14.00">Order</text>
<polyline fill="none" stroke="black" points="284,-414.5 528,-414.5 "/>
<text text-anchor="start" x="292" y="-399.3" font-family="Times,serif" font-size="14.00">id :integer</text>
<text text-anchor="start" x="292" y="-384.3" font-family="Times,serif" font-size="14.00">user_id :integer</text>
<text text-anchor="start" x="292" y="-369.3" font-family="Times,serif" font-size="14.00">amount :integer</text>
<text text-anchor="start" x="292" y="-354.3" font-family="Times,serif" font-size="14.00">created_at :timestamp without time zone</text>
<text text-anchor="start" x="292" y="-339.3" font-family="Times,serif" font-size="14.00">updated_at :timestamp without time zone</text>
</g>
<!-- Arcade -->
<g id="node4" class="node"><title>Arcade</title>
<path fill="none" stroke="black" d="M324,-143.5C324,-143.5 544,-143.5 544,-143.5 550,-143.5 556,-149.5 556,-155.5 556,-155.5 556,-267.5 556,-267.5 556,-273.5 550,-279.5 544,-279.5 544,-279.5 324,-279.5 324,-279.5 318,-279.5 312,-273.5 312,-267.5 312,-267.5 312,-155.5 312,-155.5 312,-149.5 318,-143.5 324,-143.5"/>
<text text-anchor="middle" x="434" y="-264.3" font-family="Times,serif" font-size="14.00">Arcade</text>
<polyline fill="none" stroke="black" points="312,-256.5 556,-256.5 "/>
<text text-anchor="start" x="320" y="-241.3" font-family="Times,serif" font-size="14.00">id :integer</text>
<text text-anchor="start" x="320" y="-226.3" font-family="Times,serif" font-size="14.00">name :character varying</text>
<text text-anchor="start" x="320" y="-211.3" font-family="Times,serif" font-size="14.00">price :integer</text>
<text text-anchor="start" x="320" y="-196.3" font-family="Times,serif" font-size="14.00">order_id :integer</text>
<text text-anchor="start" x="320" y="-181.3" font-family="Times,serif" font-size="14.00">created_at :timestamp without time zone</text>
<text text-anchor="start" x="320" y="-166.3" font-family="Times,serif" font-size="14.00">updated_at :timestamp without time zone</text>
<text text-anchor="start" x="320" y="-151.3" font-family="Times,serif" font-size="14.00">design_id :integer</text>
</g>
<!-- Order&#45;&gt;Arcade -->
<g id="edge1" class="edge"><title>Order&#45;&gt;Arcade</title>
<path fill="none" stroke="#7d0d33" d="M415.89,-323.099C417.656,-312.313 419.518,-300.943 421.349,-289.762"/>
<ellipse fill="none" stroke="#7d0d33" cx="415.199" cy="-327.318" rx="4.00001" ry="4.00001"/>
<polygon fill="#7d0d33" stroke="#7d0d33" points="421.402,-289.439 427.459,-280.297 422.21,-284.504 423.018,-279.57 423.018,-279.57 423.018,-279.57 422.21,-284.504 418.577,-278.843 421.402,-289.439 421.402,-289.439"/>
</g>
<!-- Component -->
<g id="node3" class="node"><title>Component</title>
<path fill="none" stroke="black" d="M558,-316.5C558,-316.5 778,-316.5 778,-316.5 784,-316.5 790,-322.5 790,-328.5 790,-328.5 790,-440.5 790,-440.5 790,-446.5 784,-452.5 778,-452.5 778,-452.5 558,-452.5 558,-452.5 552,-452.5 546,-446.5 546,-440.5 546,-440.5 546,-328.5 546,-328.5 546,-322.5 552,-316.5 558,-316.5"/>
<text text-anchor="middle" x="668" y="-437.3" font-family="Times,serif" font-size="14.00">Component</text>
<polyline fill="none" stroke="black" points="546,-429.5 790,-429.5 "/>
<text text-anchor="start" x="554" y="-414.3" font-family="Times,serif" font-size="14.00">id :integer</text>
<text text-anchor="start" x="554" y="-399.3" font-family="Times,serif" font-size="14.00">name :character varying</text>
<text text-anchor="start" x="554" y="-384.3" font-family="Times,serif" font-size="14.00">price :integer</text>
<text text-anchor="start" x="554" y="-369.3" font-family="Times,serif" font-size="14.00">stock :integer</text>
<text text-anchor="start" x="554" y="-354.3" font-family="Times,serif" font-size="14.00">created_at :timestamp without time zone</text>
<text text-anchor="start" x="554" y="-339.3" font-family="Times,serif" font-size="14.00">updated_at :timestamp without time zone</text>
<text text-anchor="start" x="554" y="-324.3" font-family="Times,serif" font-size="14.00">brand_id :integer</text>
</g>
<!-- Component&#45;&gt;Arcade -->
<g id="edge3" class="edge"><title>Component&#45;&gt;Arcade</title>
<path fill="none" stroke="#ec2667" d="M568.009,-310.429C556.768,-302.215 545.314,-293.845 534.072,-285.63"/>
<polygon fill="#ec2667" stroke="#ec2667" points="568.115,-310.507 573.534,-320.04 572.152,-313.457 576.189,-316.407 576.189,-316.407 576.189,-316.407 572.152,-313.457 578.844,-312.774 568.115,-310.507 568.115,-310.507"/>
<polygon fill="#ec2667" stroke="#ec2667" points="534.005,-285.58 528.586,-276.047 529.968,-282.63 525.931,-279.68 525.931,-279.68 525.931,-279.68 529.968,-282.63 523.276,-283.313 534.005,-285.58 534.005,-285.58"/>
</g>
<!-- ComponentArcade -->
<g id="node7" class="node"><title>ComponentArcade</title>
<path fill="none" stroke="black" d="M427,-0.5C427,-0.5 647,-0.5 647,-0.5 653,-0.5 659,-6.5 659,-12.5 659,-12.5 659,-94.5 659,-94.5 659,-100.5 653,-106.5 647,-106.5 647,-106.5 427,-106.5 427,-106.5 421,-106.5 415,-100.5 415,-94.5 415,-94.5 415,-12.5 415,-12.5 415,-6.5 421,-0.5 427,-0.5"/>
<text text-anchor="middle" x="537" y="-91.3" font-family="Times,serif" font-size="14.00">ComponentArcade</text>
<polyline fill="none" stroke="black" points="415,-83.5 659,-83.5 "/>
<text text-anchor="start" x="423" y="-68.3" font-family="Times,serif" font-size="14.00">id :integer</text>
<text text-anchor="start" x="423" y="-53.3" font-family="Times,serif" font-size="14.00">arcade_id :integer</text>
<text text-anchor="start" x="423" y="-38.3" font-family="Times,serif" font-size="14.00">component_id :integer</text>
<text text-anchor="start" x="423" y="-23.3" font-family="Times,serif" font-size="14.00">created_at :timestamp without time zone</text>
<text text-anchor="start" x="423" y="-8.3" font-family="Times,serif" font-size="14.00">updated_at :timestamp without time zone</text>
</g>
<!-- Component&#45;&gt;ComponentArcade -->
<g id="edge2" class="edge"><title>Component&#45;&gt;ComponentArcade</title>
<path fill="none" stroke="#75b6fc" d="M638.079,-308.354C614.921,-250.195 583.245,-170.642 561.561,-116.184"/>
<ellipse fill="none" stroke="#75b6fc" cx="639.694" cy="-312.412" rx="4.00001" ry="4.00001"/>
<polygon fill="#75b6fc" stroke="#75b6fc" points="561.467,-115.947 561.948,-104.992 559.617,-111.302 557.768,-106.657 557.768,-106.657 557.768,-106.657 559.617,-111.302 553.587,-108.321 561.467,-115.947 561.467,-115.947"/>
</g>
<!-- Arcade&#45;&gt;ComponentArcade -->
<g id="edge4" class="edge"><title>Arcade&#45;&gt;ComponentArcade</title>
<path fill="none" stroke="#ebc02e" d="M482.838,-136.531C487.484,-129.496 492.158,-122.416 496.71,-115.522"/>
<ellipse fill="none" stroke="#ebc02e" cx="480.483" cy="-140.099" rx="4.00002" ry="4.00002"/>
<polygon fill="#ebc02e" stroke="#ebc02e" points="496.888,-115.252 506.153,-109.386 499.643,-111.079 502.398,-106.907 502.398,-106.907 502.398,-106.907 499.643,-111.079 498.643,-104.427 496.888,-115.252 496.888,-115.252"/>
</g>
<!-- ApplicationRecord -->
<g id="node5" class="node"><title>ApplicationRecord</title>
<ellipse fill="none" stroke="black" cx="903" cy="-632.5" rx="77.1866" ry="18"/>
<text text-anchor="middle" x="903" y="-628.8" font-family="Times,serif" font-size="14.00">ApplicationRecord</text>
</g>
<!-- Design -->
<g id="node6" class="node"><title>Design</title>
<path fill="none" stroke="black" d="M34,-339C34,-339 254,-339 254,-339 260,-339 266,-345 266,-351 266,-351 266,-418 266,-418 266,-424 260,-430 254,-430 254,-430 34,-430 34,-430 28,-430 22,-424 22,-418 22,-418 22,-351 22,-351 22,-345 28,-339 34,-339"/>
<text text-anchor="middle" x="144" y="-414.8" font-family="Times,serif" font-size="14.00">Design</text>
<polyline fill="none" stroke="black" points="22,-407 266,-407 "/>
<text text-anchor="start" x="30" y="-391.8" font-family="Times,serif" font-size="14.00">id :integer</text>
<text text-anchor="start" x="30" y="-376.8" font-family="Times,serif" font-size="14.00">name :character varying</text>
<text text-anchor="start" x="30" y="-361.8" font-family="Times,serif" font-size="14.00">created_at :timestamp without time zone</text>
<text text-anchor="start" x="30" y="-346.8" font-family="Times,serif" font-size="14.00">updated_at :timestamp without time zone</text>
</g>
<!-- Design&#45;&gt;Arcade -->
<g id="edge5" class="edge"><title>Design&#45;&gt;Arcade</title>
<path fill="none" stroke="#f93b2b" d="M226.72,-334.723C253.051,-319.198 282.763,-301.677 311.296,-284.853"/>
<ellipse fill="none" stroke="#f93b2b" cx="223.261" cy="-336.763" rx="4.00002" ry="4.00002"/>
<polygon fill="#f93b2b" stroke="#f93b2b" points="311.494,-284.736 322.394,-283.533 315.801,-282.197 320.108,-279.657 320.108,-279.657 320.108,-279.657 315.801,-282.197 317.822,-275.781 311.494,-284.736 311.494,-284.736"/>
</g>
<!-- User -->
<g id="node8" class="node"><title>User</title>
<path fill="none" stroke="black" d="M244.5,-489.5C244.5,-489.5 533.5,-489.5 533.5,-489.5 539.5,-489.5 545.5,-495.5 545.5,-501.5 545.5,-501.5 545.5,-763.5 545.5,-763.5 545.5,-769.5 539.5,-775.5 533.5,-775.5 533.5,-775.5 244.5,-775.5 244.5,-775.5 238.5,-775.5 232.5,-769.5 232.5,-763.5 232.5,-763.5 232.5,-501.5 232.5,-501.5 232.5,-495.5 238.5,-489.5 244.5,-489.5"/>
<text text-anchor="middle" x="389" y="-760.3" font-family="Times,serif" font-size="14.00">User</text>
<polyline fill="none" stroke="black" points="232.5,-752.5 545.5,-752.5 "/>
<text text-anchor="start" x="240.5" y="-737.3" font-family="Times,serif" font-size="14.00">id :integer</text>
<text text-anchor="start" x="240.5" y="-722.3" font-family="Times,serif" font-size="14.00">email :character varying</text>
<text text-anchor="start" x="240.5" y="-707.3" font-family="Times,serif" font-size="14.00">encrypted_password :character varying</text>
<text text-anchor="start" x="240.5" y="-692.3" font-family="Times,serif" font-size="14.00">reset_password_token :character varying</text>
<text text-anchor="start" x="240.5" y="-677.3" font-family="Times,serif" font-size="14.00">reset_password_sent_at :timestamp without time zone</text>
<text text-anchor="start" x="240.5" y="-662.3" font-family="Times,serif" font-size="14.00">remember_created_at :timestamp without time zone</text>
<text text-anchor="start" x="240.5" y="-647.3" font-family="Times,serif" font-size="14.00">sign_in_count :integer</text>
<text text-anchor="start" x="240.5" y="-632.3" font-family="Times,serif" font-size="14.00">current_sign_in_at :timestamp without time zone</text>
<text text-anchor="start" x="240.5" y="-617.3" font-family="Times,serif" font-size="14.00">last_sign_in_at :timestamp without time zone</text>
<text text-anchor="start" x="240.5" y="-602.3" font-family="Times,serif" font-size="14.00">current_sign_in_ip :inet</text>
<text text-anchor="start" x="240.5" y="-587.3" font-family="Times,serif" font-size="14.00">last_sign_in_ip :inet</text>
<text text-anchor="start" x="240.5" y="-572.3" font-family="Times,serif" font-size="14.00">created_at :timestamp without time zone</text>
<text text-anchor="start" x="240.5" y="-557.3" font-family="Times,serif" font-size="14.00">updated_at :timestamp without time zone</text>
<text text-anchor="start" x="240.5" y="-542.3" font-family="Times,serif" font-size="14.00">phone :character varying</text>
<text text-anchor="start" x="240.5" y="-527.3" font-family="Times,serif" font-size="14.00">first_name :character varying</text>
<text text-anchor="start" x="240.5" y="-512.3" font-family="Times,serif" font-size="14.00">last_name :character varying</text>
<text text-anchor="start" x="240.5" y="-497.3" font-family="Times,serif" font-size="14.00">address :character varying</text>
</g>
<!-- User&#45;&gt;Order -->
<g id="edge6" class="edge"><title>User&#45;&gt;Order</title>
<path fill="none" stroke="#60cd89" d="M399.379,-481.307C400.183,-469.671 400.964,-458.377 401.69,-447.871"/>
<ellipse fill="none" stroke="#60cd89" cx="399.091" cy="-485.479" rx="4" ry="4"/>
<polygon fill="#60cd89" stroke="#60cd89" points="401.707,-447.619 406.886,-437.953 402.052,-442.631 402.397,-437.643 402.397,-437.643 402.397,-437.643 402.052,-442.631 397.907,-437.332 401.707,-447.619 401.707,-447.619"/>
</g>
<!-- Brand -->
<g id="node9" class="node"><title>Brand</title>
<path fill="none" stroke="black" d="M576,-587C576,-587 796,-587 796,-587 802,-587 808,-593 808,-599 808,-599 808,-666 808,-666 808,-672 802,-678 796,-678 796,-678 576,-678 576,-678 570,-678 564,-672 564,-666 564,-666 564,-599 564,-599 564,-593 570,-587 576,-587"/>
<text text-anchor="middle" x="686" y="-662.8" font-family="Times,serif" font-size="14.00">Brand</text>
<polyline fill="none" stroke="black" points="564,-655 808,-655 "/>
<text text-anchor="start" x="572" y="-639.8" font-family="Times,serif" font-size="14.00">id :integer</text>
<text text-anchor="start" x="572" y="-624.8" font-family="Times,serif" font-size="14.00">name :character varying</text>
<text text-anchor="start" x="572" y="-609.8" font-family="Times,serif" font-size="14.00">created_at :timestamp without time zone</text>
<text text-anchor="start" x="572" y="-594.8" font-family="Times,serif" font-size="14.00">updated_at :timestamp without time zone</text>
</g>
<!-- Brand&#45;&gt;Component -->
<g id="edge7" class="edge"><title>Brand&#45;&gt;Component</title>
<path fill="none" stroke="#d0acfc" d="M682.146,-578.829C679.685,-545.195 676.451,-500.994 673.696,-463.347"/>
<ellipse fill="none" stroke="#d0acfc" cx="682.448" cy="-582.962" rx="4" ry="4"/>
<polygon fill="#d0acfc" stroke="#d0acfc" points="673.663,-462.89 677.421,-452.588 673.298,-457.903 672.933,-452.916 672.933,-452.916 672.933,-452.916 673.298,-457.903 668.445,-453.245 673.663,-462.89 673.663,-462.89"/>
</g>
</g>
</svg>
