<?xml version="1.0" encoding="UTF-8" standalone="no"?>
<!DOCTYPE svg PUBLIC "-//W3C//DTD SVG 1.1//EN"
 "http://www.w3.org/Graphics/SVG/1.1/DTD/svg11.dtd">
<!-- Generated by graphviz version 2.38.0 (20140413.2041)
 -->
<!-- Title: models_diagram Pages: 1 -->
<svg width="988pt" height="829pt"
 viewBox="0.00 0.00 988.34 829.00" xmlns="http://www.w3.org/2000/svg" xmlns:xlink="http://www.w3.org/1999/xlink">
<g id="graph0" class="graph" transform="scale(1 1) rotate(0) translate(4 825)">
<title>models_diagram</title>
<polygon fill="none" stroke="none" points="-4,4 -4,-825 984.343,-825 984.343,4 -4,4"/>
<!-- _diagram_info -->
<g id="node1" class="node"><title>_diagram_info</title>
<text text-anchor="start" x="8" y="-702.1" font-family="Times,serif" font-size="13.00">Models diagram</text>
<text text-anchor="start" x="8" y="-688.1" font-family="Times,serif" font-size="13.00">Date: Oct 07 2017 &#45; 13:25</text>
<text text-anchor="start" x="8" y="-674.1" font-family="Times,serif" font-size="13.00">Migration version: 20171006134847</text>
<text text-anchor="start" x="8" y="-660.1" font-family="Times,serif" font-size="13.00">Generated by RailRoady 1.5.3</text>
<text text-anchor="start" x="8" y="-646.1" font-family="Times,serif" font-size="13.00">http://railroady.prestonlee.com</text>
</g>
<!-- Order -->
<g id="node2" class="node"><title>Order</title>
<path fill="none" stroke="black" d="M296,-354C296,-354 516,-354 516,-354 522,-354 528,-360 528,-366 528,-366 528,-463 528,-463 528,-469 522,-475 516,-475 516,-475 296,-475 296,-475 290,-475 284,-469 284,-463 284,-463 284,-366 284,-366 284,-360 290,-354 296,-354"/>
<text text-anchor="middle" x="406" y="-459.8" font-family="Times,serif" font-size="14.00">Order</text>
<polyline fill="none" stroke="black" points="284,-452 528,-452 "/>
<text text-anchor="start" x="292" y="-436.8" font-family="Times,serif" font-size="14.00">id :integer</text>
<text text-anchor="start" x="292" y="-421.8" font-family="Times,serif" font-size="14.00">user_id :integer</text>
<text text-anchor="start" x="292" y="-406.8" font-family="Times,serif" font-size="14.00">amount :integer</text>
<text text-anchor="start" x="292" y="-391.8" font-family="Times,serif" font-size="14.00">created_at :timestamp without time zone</text>
<text text-anchor="start" x="292" y="-376.8" font-family="Times,serif" font-size="14.00">updated_at :timestamp without time zone</text>
<text text-anchor="start" x="292" y="-361.8" font-family="Times,serif" font-size="14.00">payed :boolean</text>
</g>
<!-- Arcade -->
<g id="node4" class="node"><title>Arcade</title>
<path fill="none" stroke="black" d="M324,-143.5C324,-143.5 544,-143.5 544,-143.5 550,-143.5 556,-149.5 556,-155.5 556,-155.5 556,-282.5 556,-282.5 556,-288.5 550,-294.5 544,-294.5 544,-294.5 324,-294.5 324,-294.5 318,-294.5 312,-288.5 312,-282.5 312,-282.5 312,-155.5 312,-155.5 312,-149.5 318,-143.5 324,-143.5"/>
<text text-anchor="middle" x="434" y="-279.3" font-family="Times,serif" font-size="14.00">Arcade</text>
<polyline fill="none" stroke="black" points="312,-271.5 556,-271.5 "/>
<text text-anchor="start" x="320" y="-256.3" font-family="Times,serif" font-size="14.00">id :integer</text>
<text text-anchor="start" x="320" y="-241.3" font-family="Times,serif" font-size="14.00">name :character varying</text>
<text text-anchor="start" x="320" y="-226.3" font-family="Times,serif" font-size="14.00">price :integer</text>
<text text-anchor="start" x="320" y="-211.3" font-family="Times,serif" font-size="14.00">order_id :integer</text>
<text text-anchor="start" x="320" y="-196.3" font-family="Times,serif" font-size="14.00">created_at :timestamp without time zone</text>
<text text-anchor="start" x="320" y="-181.3" font-family="Times,serif" font-size="14.00">updated_at :timestamp without time zone</text>
<text text-anchor="start" x="320" y="-166.3" font-family="Times,serif" font-size="14.00">design_id :integer</text>
<text text-anchor="start" x="320" y="-151.3" font-family="Times,serif" font-size="14.00">image :character varying</text>
</g>
<!-- Order&#45;&gt;Arcade -->
<g id="edge1" class="edge"><title>Order&#45;&gt;Arcade</title>
<path fill="none" stroke="#dd6dad" d="M415.785,-345.875C417.707,-332.599 419.744,-318.517 421.735,-304.762"/>
<ellipse fill="none" stroke="#dd6dad" cx="415.202" cy="-349.906" rx="4.00001" ry="4.00001"/>
<polygon fill="#dd6dad" stroke="#dd6dad" points="421.741,-304.718 427.627,-295.465 422.457,-299.769 423.173,-294.821 423.173,-294.821 423.173,-294.821 422.457,-299.769 418.72,-294.176 421.741,-304.718 421.741,-304.718"/>
</g>
<!-- Component -->
<g id="node3" class="node"><title>Component</title>
<path fill="none" stroke="black" d="M558,-331.5C558,-331.5 778,-331.5 778,-331.5 784,-331.5 790,-337.5 790,-343.5 790,-343.5 790,-485.5 790,-485.5 790,-491.5 784,-497.5 778,-497.5 778,-497.5 558,-497.5 558,-497.5 552,-497.5 546,-491.5 546,-485.5 546,-485.5 546,-343.5 546,-343.5 546,-337.5 552,-331.5 558,-331.5"/>
<text text-anchor="middle" x="668" y="-482.3" font-family="Times,serif" font-size="14.00">Component</text>
<polyline fill="none" stroke="black" points="546,-474.5 790,-474.5 "/>
<text text-anchor="start" x="554" y="-459.3" font-family="Times,serif" font-size="14.00">id :integer</text>
<text text-anchor="start" x="554" y="-444.3" font-family="Times,serif" font-size="14.00">name :character varying</text>
<text text-anchor="start" x="554" y="-429.3" font-family="Times,serif" font-size="14.00">price :integer</text>
<text text-anchor="start" x="554" y="-414.3" font-family="Times,serif" font-size="14.00">stock :integer</text>
<text text-anchor="start" x="554" y="-399.3" font-family="Times,serif" font-size="14.00">created_at :timestamp without time zone</text>
<text text-anchor="start" x="554" y="-384.3" font-family="Times,serif" font-size="14.00">updated_at :timestamp without time zone</text>
<text text-anchor="start" x="554" y="-369.3" font-family="Times,serif" font-size="14.00">brand_id :integer</text>
<text text-anchor="start" x="554" y="-354.3" font-family="Times,serif" font-size="14.00">image :character varying</text>
<text text-anchor="start" x="554" y="-339.3" font-family="Times,serif" font-size="14.00">description :text</text>
</g>
<!-- Component&#45;&gt;Arcade -->
<g id="edge3" class="edge"><title>Component&#45;&gt;Arcade</title>
<path fill="none" stroke="#2a2ed4" d="M560.74,-324.805C551.171,-316.892 541.515,-308.906 532.029,-301.063"/>
<polygon fill="#2a2ed4" stroke="#2a2ed4" points="561.056,-325.066 565.895,-334.906 564.91,-328.252 568.763,-331.439 568.763,-331.439 568.763,-331.439 564.91,-328.252 571.631,-327.971 561.056,-325.066 561.056,-325.066"/>
<polygon fill="#2a2ed4" stroke="#2a2ed4" points="531.814,-300.884 526.975,-291.044 527.96,-297.698 524.107,-294.512 524.107,-294.512 524.107,-294.512 527.96,-297.698 521.239,-297.98 531.814,-300.884 531.814,-300.884"/>
</g>
<!-- ComponentArcade -->
<g id="node7" class="node"><title>ComponentArcade</title>
<path fill="none" stroke="black" d="M427,-0.5C427,-0.5 647,-0.5 647,-0.5 653,-0.5 659,-6.5 659,-12.5 659,-12.5 659,-94.5 659,-94.5 659,-100.5 653,-106.5 647,-106.5 647,-106.5 427,-106.5 427,-106.5 421,-106.5 415,-100.5 415,-94.5 415,-94.5 415,-12.5 415,-12.5 415,-6.5 421,-0.5 427,-0.5"/>
<text text-anchor="middle" x="537" y="-91.3" font-family="Times,serif" font-size="14.00">ComponentArcade</text>
<polyline fill="none" stroke="black" points="415,-83.5 659,-83.5 "/>
<text text-anchor="start" x="423" y="-68.3" font-family="Times,serif" font-size="14.00">id :integer</text>
<text text-anchor="start" x="423" y="-53.3" font-family="Times,serif" font-size="14.00">arcade_id :integer</text>
<text text-anchor="start" x="423" y="-38.3" font-family="Times,serif" font-size="14.00">component_id :integer</text>
<text text-anchor="start" x="423" y="-23.3" font-family="Times,serif" font-size="14.00">created_at :timestamp without time zone</text>
<text text-anchor="start" x="423" y="-8.3" font-family="Times,serif" font-size="14.00">updated_at :timestamp without time zone</text>
</g>
<!-- Component&#45;&gt;ComponentArcade -->
<g id="edge2" class="edge"><title>Component&#45;&gt;ComponentArcade</title>
<path fill="none" stroke="#e864f7" d="M635.101,-323.342C611.524,-258.73 580.382,-173.388 559.572,-116.357"/>
<ellipse fill="none" stroke="#e864f7" cx="636.575" cy="-327.381" rx="4.00001" ry="4.00001"/>
<polygon fill="#e864f7" stroke="#e864f7" points="559.495,-116.148 560.295,-105.211 557.781,-111.45 556.067,-106.753 556.067,-106.753 556.067,-106.753 557.781,-111.45 551.84,-108.296 559.495,-116.148 559.495,-116.148"/>
</g>
<!-- Arcade&#45;&gt;ComponentArcade -->
<g id="edge4" class="edge"><title>Arcade&#45;&gt;ComponentArcade</title>
<path fill="none" stroke="#c6ec9d" d="M485.406,-136.399C489.907,-129.254 494.41,-122.107 498.776,-115.177"/>
<ellipse fill="none" stroke="#c6ec9d" cx="483.111" cy="-140.042" rx="4.00002" ry="4.00002"/>
<polygon fill="#c6ec9d" stroke="#c6ec9d" points="498.892,-114.992 508.03,-108.929 501.557,-110.761 504.222,-106.531 504.222,-106.531 504.222,-106.531 501.557,-110.761 500.415,-104.132 498.892,-114.992 498.892,-114.992"/>
</g>
<!-- ApplicationRecord -->
<g id="node5" class="node"><title>ApplicationRecord</title>
<ellipse fill="none" stroke="black" cx="903" cy="-677.5" rx="77.1866" ry="18"/>
<text text-anchor="middle" x="903" y="-673.8" font-family="Times,serif" font-size="14.00">ApplicationRecord</text>
</g>
<!-- Design -->
<g id="node6" class="node"><title>Design</title>
<path fill="none" stroke="black" d="M34,-354C34,-354 254,-354 254,-354 260,-354 266,-360 266,-366 266,-366 266,-463 266,-463 266,-469 260,-475 254,-475 254,-475 34,-475 34,-475 28,-475 22,-469 22,-463 22,-463 22,-366 22,-366 22,-360 28,-354 34,-354"/>
<text text-anchor="middle" x="144" y="-459.8" font-family="Times,serif" font-size="14.00">Design</text>
<polyline fill="none" stroke="black" points="22,-452 266,-452 "/>
<text text-anchor="start" x="30" y="-436.8" font-family="Times,serif" font-size="14.00">id :integer</text>
<text text-anchor="start" x="30" y="-421.8" font-family="Times,serif" font-size="14.00">name :character varying</text>
<text text-anchor="start" x="30" y="-406.8" font-family="Times,serif" font-size="14.00">created_at :timestamp without time zone</text>
<text text-anchor="start" x="30" y="-391.8" font-family="Times,serif" font-size="14.00">updated_at :timestamp without time zone</text>
<text text-anchor="start" x="30" y="-376.8" font-family="Times,serif" font-size="14.00">image :character varying</text>
<text text-anchor="start" x="30" y="-361.8" font-family="Times,serif" font-size="14.00">price :integer</text>
</g>
<!-- Design&#45;&gt;Arcade -->
<g id="edge5" class="edge"><title>Design&#45;&gt;Arcade</title>
<path fill="none" stroke="#0532fd" d="M240.34,-349.218C263.779,-333.578 289.137,-316.658 313.54,-300.376"/>
<ellipse fill="none" stroke="#0532fd" cx="236.703" cy="-351.645" rx="4.00002" ry="4.00002"/>
<polygon fill="#0532fd" stroke="#0532fd" points="313.809,-300.197 324.625,-298.389 317.968,-297.421 322.127,-294.646 322.127,-294.646 322.127,-294.646 317.968,-297.421 319.63,-290.903 313.809,-300.197 313.809,-300.197"/>
</g>
<!-- User -->
<g id="node8" class="node"><title>User</title>
<path fill="none" stroke="black" d="M244.5,-534.5C244.5,-534.5 533.5,-534.5 533.5,-534.5 539.5,-534.5 545.5,-540.5 545.5,-546.5 545.5,-546.5 545.5,-808.5 545.5,-808.5 545.5,-814.5 539.5,-820.5 533.5,-820.5 533.5,-820.5 244.5,-820.5 244.5,-820.5 238.5,-820.5 232.5,-814.5 232.5,-808.5 232.5,-808.5 232.5,-546.5 232.5,-546.5 232.5,-540.5 238.5,-534.5 244.5,-534.5"/>
<text text-anchor="middle" x="389" y="-805.3" font-family="Times,serif" font-size="14.00">User</text>
<polyline fill="none" stroke="black" points="232.5,-797.5 545.5,-797.5 "/>
<text text-anchor="start" x="240.5" y="-782.3" font-family="Times,serif" font-size="14.00">id :integer</text>
<text text-anchor="start" x="240.5" y="-767.3" font-family="Times,serif" font-size="14.00">email :character varying</text>
<text text-anchor="start" x="240.5" y="-752.3" font-family="Times,serif" font-size="14.00">encrypted_password :character varying</text>
<text text-anchor="start" x="240.5" y="-737.3" font-family="Times,serif" font-size="14.00">reset_password_token :character varying</text>
<text text-anchor="start" x="240.5" y="-722.3" font-family="Times,serif" font-size="14.00">reset_password_sent_at :timestamp without time zone</text>
<text text-anchor="start" x="240.5" y="-707.3" font-family="Times,serif" font-size="14.00">remember_created_at :timestamp without time zone</text>
<text text-anchor="start" x="240.5" y="-692.3" font-family="Times,serif" font-size="14.00">sign_in_count :integer</text>
<text text-anchor="start" x="240.5" y="-677.3" font-family="Times,serif" font-size="14.00">current_sign_in_at :timestamp without time zone</text>
<text text-anchor="start" x="240.5" y="-662.3" font-family="Times,serif" font-size="14.00">last_sign_in_at :timestamp without time zone</text>
<text text-anchor="start" x="240.5" y="-647.3" font-family="Times,serif" font-size="14.00">current_sign_in_ip :inet</text>
<text text-anchor="start" x="240.5" y="-632.3" font-family="Times,serif" font-size="14.00">last_sign_in_ip :inet</text>
<text text-anchor="start" x="240.5" y="-617.3" font-family="Times,serif" font-size="14.00">created_at :timestamp without time zone</text>
<text text-anchor="start" x="240.5" y="-602.3" font-family="Times,serif" font-size="14.00">updated_at :timestamp without time zone</text>
<text text-anchor="start" x="240.5" y="-587.3" font-family="Times,serif" font-size="14.00">phone :character varying</text>
<text text-anchor="start" x="240.5" y="-572.3" font-family="Times,serif" font-size="14.00">first_name :character varying</text>
<text text-anchor="start" x="240.5" y="-557.3" font-family="Times,serif" font-size="14.00">last_name :character varying</text>
<text text-anchor="start" x="240.5" y="-542.3" font-family="Times,serif" font-size="14.00">address :character varying</text>
</g>
<!-- User&#45;&gt;Order -->
<g id="edge6" class="edge"><title>User&#45;&gt;Order</title>
<path fill="none" stroke="#5c5bc2" d="M398.808,-525.919C399.727,-511.815 400.624,-498.032 401.457,-485.25"/>
<ellipse fill="none" stroke="#5c5bc2" cx="398.531" cy="-530.171" rx="4" ry="4"/>
<polygon fill="#5c5bc2" stroke="#5c5bc2" points="401.46,-485.205 406.6,-475.519 401.785,-480.216 402.11,-475.227 402.11,-475.227 402.11,-475.227 401.785,-480.216 397.619,-474.934 401.46,-485.205 401.46,-485.205"/>
</g>
<!-- Brand -->
<g id="node9" class="node"><title>Brand</title>
<path fill="none" stroke="black" d="M576,-632C576,-632 796,-632 796,-632 802,-632 808,-638 808,-644 808,-644 808,-711 808,-711 808,-717 802,-723 796,-723 796,-723 576,-723 576,-723 570,-723 564,-717 564,-711 564,-711 564,-644 564,-644 564,-638 570,-632 576,-632"/>
<text text-anchor="middle" x="686" y="-707.8" font-family="Times,serif" font-size="14.00">Brand</text>
<polyline fill="none" stroke="black" points="564,-700 808,-700 "/>
<text text-anchor="start" x="572" y="-684.8" font-family="Times,serif" font-size="14.00">id :integer</text>
<text text-anchor="start" x="572" y="-669.8" font-family="Times,serif" font-size="14.00">name :character varying</text>
<text text-anchor="start" x="572" y="-654.8" font-family="Times,serif" font-size="14.00">created_at :timestamp without time zone</text>
<text text-anchor="start" x="572" y="-639.8" font-family="Times,serif" font-size="14.00">updated_at :timestamp without time zone</text>
</g>
<!-- Brand&#45;&gt;Component -->
<g id="edge7" class="edge"><title>Brand&#45;&gt;Component</title>
<path fill="none" stroke="#e031e5" d="M682.375,-623.94C680.083,-590.706 677.057,-546.829 674.373,-507.907"/>
<ellipse fill="none" stroke="#e031e5" cx="682.651" cy="-627.939" rx="4" ry="4"/>
<polygon fill="#e031e5" stroke="#e031e5" points="674.35,-507.579 678.152,-497.293 674.006,-502.591 673.662,-497.602 673.662,-497.602 673.662,-497.602 674.006,-502.591 669.173,-497.912 674.35,-507.579 674.35,-507.579"/>
</g>
</g>
</svg>
